<?xml version="1.0" standalone="no"?>
<!DOCTYPE svg PUBLIC "-//W3C//DTD SVG 20010904//EN"
 "http://www.w3.org/TR/2001/REC-SVG-20010904/DTD/svg10.dtd">
<svg version="1.0" xmlns="http://www.w3.org/2000/svg"
 width="512.000000pt" height="512.000000pt" viewBox="0 0 512.000000 512.000000"
 preserveAspectRatio="xMidYMid meet">

<g transform="translate(0.000000,512.000000) scale(0.100000,-0.100000)"
fill="#000000" stroke="none">
<path d="M2330 5110 c-494 -48 -950 -230 -1350 -538 -195 -150 -448 -432 -594
-662 -63 -99 -186 -351 -230 -471 -49 -134 -102 -340 -128 -499 -31 -195 -31
-565 0 -760 45 -276 116 -498 237 -745 132 -269 269 -460 489 -681 221 -220
412 -357 681 -489 247 -121 469 -192 745 -237 195 -31 565 -31 760 0 276 45
498 116 745 237 269 132 460 269 681 489 220 221 357 412 489 681 88 179 132
296 180 476 63 240 78 371 78 649 0 278 -15 409 -78 649 -48 180 -92 297 -180
476 -132 269 -269 460 -489 681 -221 220 -412 357 -681 489 -246 121 -474 193
-740 235 -147 23 -475 34 -615 20z m426 -431 c503 -49 947 -259 1305 -618 361
-362 569 -802 618 -1305 51 -522 -97 -1041 -422 -1476 -92 -123 -296 -328
-417 -418 -438 -325 -954 -472 -1476 -421 -503 49 -947 259 -1305 618 -361
362 -569 802 -618 1305 -51 522 97 1041 422 1476 92 123 296 328 417 418 438
324 955 472 1476 421z"/>
<path d="M2410 4145 c-104 -18 -172 -41 -260 -85 -310 -156 -505 -461 -513
-799 -1 -66 3 -86 24 -127 54 -105 174 -143 283 -90 79 39 105 83 122 210 20
153 55 234 140 321 195 201 514 200 709 0 179 -185 184 -479 11 -672 -87 -97
-195 -149 -339 -164 -131 -13 -197 -56 -229 -146 -15 -42 -19 -549 -5 -614 10
-47 71 -117 121 -140 52 -24 120 -24 171 0 43 19 100 77 117 120 6 14 14 105
17 201 l6 174 40 12 c316 92 570 368 641 697 19 87 21 267 4 357 -91 492 -573
830 -1060 745z"/>
<path d="M2453 1584 c-23 -9 -62 -33 -88 -56 -164 -144 -128 -402 70 -498 71
-35 179 -35 250 0 198 96 234 354 70 498 -25 22 -67 48 -92 56 -57 20 -154 19
-210 0z"/>
</g>
</svg>
