<?xml version="1.0" standalone="no"?>
<!DOCTYPE svg PUBLIC "-//W3C//DTD SVG 20010904//EN"
 "http://www.w3.org/TR/2001/REC-SVG-20010904/DTD/svg10.dtd">
<svg version="1.0" xmlns="http://www.w3.org/2000/svg"
 width="512.000000pt" height="512.000000pt" viewBox="0 0 512.000000 512.000000"
 preserveAspectRatio="xMidYMid meet">

<g transform="translate(0.000000,512.000000) scale(0.100000,-0.100000)"
fill="#000000" stroke="none">
<path d="M1962 4262 c-16 -15 -32 -36 -35 -47 -3 -11 -72 -594 -153 -1295 -81
-701 -150 -1278 -153 -1282 -3 -4 -52 169 -109 385 -57 216 -110 402 -118 414
-37 57 -41 58 -399 61 -181 2 -350 0 -374 -3 -32 -5 -54 -16 -78 -40 -28 -28
-33 -40 -33 -80 0 -40 5 -52 34 -81 l34 -34 311 0 310 0 10 -37 c133 -509 326
-1240 337 -1275 9 -27 28 -58 45 -73 65 -54 167 -19 188 63 5 20 65 517 133
1104 67 587 126 1064 129 1060 3 -4 42 -317 87 -697 46 -379 87 -706 92 -726
21 -79 112 -113 179 -67 31 20 44 46 114 221 44 109 81 197 82 195 2 -2 51
-230 109 -508 59 -278 112 -518 118 -534 34 -84 169 -87 211 -4 9 18 107 488
217 1043 111 556 205 1021 209 1035 6 18 28 -57 91 -310 45 -184 89 -347 97
-362 28 -57 34 -58 484 -58 l411 0 34 34 c28 28 34 42 34 75 0 56 -22 95 -64
115 -29 14 -80 16 -369 16 l-335 0 -137 555 c-149 605 -148 603 -224 626 -45
13 -101 -6 -125 -44 -10 -14 -99 -438 -218 -1033 -110 -555 -204 -1012 -207
-1016 -4 -4 -44 173 -90 395 -46 221 -92 421 -103 444 -34 74 -129 91 -186 33
-17 -17 -50 -86 -87 -180 -53 -138 -60 -150 -67 -124 -5 16 -60 463 -123 994
-63 531 -118 976 -121 989 -3 13 -19 37 -36 53 -43 40 -113 40 -156 0z"/>
</g>
</svg>
