<?xml version="1.0" standalone="no"?>
<!DOCTYPE svg PUBLIC "-//W3C//DTD SVG 20010904//EN"
 "http://www.w3.org/TR/2001/REC-SVG-20010904/DTD/svg10.dtd">
<svg version="1.0" xmlns="http://www.w3.org/2000/svg"
 width="512.000000pt" height="512.000000pt" viewBox="0 0 512.000000 512.000000"
 preserveAspectRatio="xMidYMid meet">

<g transform="translate(0.000000,512.000000) scale(0.100000,-0.100000)"
fill="#387ee7" stroke="none">
<path d="M1330 4756 c-657 -188 -1210 -348 -1228 -355 -95 -40 -107 -188 -20
-241 16 -10 232 -75 479 -146 l449 -128 0 -851 c0 -831 1 -851 20 -883 11 -18
34 -41 52 -52 57 -35 88 -27 242 59 306 170 595 275 900 327 130 22 407 29
549 15 353 -37 703 -157 1063 -364 44 -26 97 -49 119 -52 50 -7 101 17 132 64
l23 34 0 852 0 852 223 62 c122 35 228 65 235 68 9 4 12 -81 12 -401 0 -450 1
-459 62 -496 43 -26 111 -26 153 0 65 40 65 40 65 533 l0 446 83 25 c98 30
131 53 147 102 24 73 -10 150 -77 177 -79 31 -2430 697 -2458 696 -17 -1 -568
-155 -1225 -343z m2153 -206 c501 -144 922 -264 935 -268 17 -5 -234 -81 -917
-276 l-941 -269 -941 269 c-517 148 -935 270 -928 273 46 15 1857 530 1867
530 7 1 423 -116 925 -259z m-1560 -925 c336 -96 623 -175 637 -175 14 0 301
79 637 175 337 96 617 175 623 175 7 0 10 -223 10 -665 0 -445 -3 -665 -10
-665 -6 0 -51 20 -100 45 -587 295 -1267 356 -1890 168 -136 -40 -310 -108
-435 -169 -49 -24 -93 -44 -97 -44 -4 0 -8 299 -8 665 0 442 3 665 10 665 6 0
286 -79 623 -175z"/>
<path d="M820 1775 c-338 -68 -614 -332 -690 -658 -27 -118 -33 -210 -20 -312
45 -362 300 -656 656 -757 l79 -23 2020 -3 c1426 -2 2031 0 2057 8 54 15 92
69 92 129 0 41 -9 59 -71 154 -118 178 -183 382 -183 570 0 162 55 398 123
533 14 28 49 80 76 114 28 35 53 78 57 96 11 60 -22 121 -83 153 -34 17 -4025
14 -4113 -4z m3771 -327 c-41 -90 -80 -219 -94 -312 l-13 -81 -1749 -5 c-1300
-4 -1755 -8 -1770 -17 -46 -26 -68 -62 -72 -115 -5 -63 18 -107 69 -135 31
-17 122 -18 1777 -23 l1745 -5 13 -80 c17 -98 46 -198 84 -289 16 -37 29 -72
29 -77 0 -6 -744 -8 -1862 -7 l-1863 3 -80 27 c-196 67 -349 230 -400 425 -8
32 -15 101 -15 155 0 170 63 315 188 435 63 60 187 128 274 148 42 11 431 13
1910 14 l1857 1 -28 -62z"/>
</g>
</svg>
