<?xml version="1.0" standalone="no"?>
<!DOCTYPE svg PUBLIC "-//W3C//DTD SVG 20010904//EN"
 "http://www.w3.org/TR/2001/REC-SVG-20010904/DTD/svg10.dtd">
<svg version="1.0" xmlns="http://www.w3.org/2000/svg"
 width="512.000000pt" height="512.000000pt" viewBox="0 0 512.000000 512.000000"
 preserveAspectRatio="xMidYMid meet">

<g transform="translate(0.000000,512.000000) scale(0.100000,-0.100000)"
fill="#000000" stroke="none">
<path d="M2325 4629 c-155 -15 -354 -58 -523 -115 -762 -253 -1338 -861 -1556
-1639 -78 -279 -88 -420 -84 -1140 4 -634 2 -608 58 -757 29 -78 106 -194 175
-263 69 -69 185 -146 263 -175 132 -50 168 -55 372 -55 178 0 199 2 241 21 58
27 116 85 143 143 21 46 21 53 21 791 0 738 0 745 -21 791 -27 58 -85 116
-143 143 -42 19 -63 21 -241 21 -151 0 -208 -4 -255 -17 -101 -28 -170 -57
-234 -98 l-61 -40 0 49 c0 27 5 95 10 152 73 720 507 1345 1154 1664 491 241
1045 280 1566 109 779 -255 1337 -952 1420 -1773 5 -57 10 -125 10 -152 l0
-49 -61 40 c-64 41 -133 70 -234 98 -47 13 -104 17 -255 17 -178 0 -199 -2
-241 -21 -58 -27 -116 -85 -143 -143 -21 -46 -21 -53 -21 -791 0 -738 0 -745
21 -791 27 -58 85 -116 143 -143 42 -19 63 -21 241 -21 204 0 240 5 372 55 78
29 194 106 263 175 69 69 146 185 175 263 56 149 54 124 58 752 2 379 -1 631
-8 715 -35 411 -180 814 -412 1152 -497 722 -1337 1114 -2213 1032z m-1205
-3189 l0 -640 -108 0 c-173 0 -279 38 -383 137 -64 61 -111 141 -134 228 -21
83 -21 466 0 548 45 171 177 306 346 351 31 9 102 15 167 15 l112 1 0 -640z
m3155 625 c172 -45 305 -179 350 -352 21 -82 21 -465 0 -548 -23 -87 -70 -167
-134 -228 -104 -99 -210 -137 -383 -137 l-108 0 0 640 0 640 108 0 c65 0 131
-6 167 -15z"/>
</g>
</svg>
