<?xml version="1.0" standalone="no"?><svg xmlns="http://www.w3.org/2000/svg" viewBox="0 0 1440 320"><path fill="#0067FF" fill-opacity="1" d="M0,160L40,160C80,160,160,160,240,181.3C320,203,400,245,480,266.7C560,288,640,288,720,277.3C800,267,880,245,960,229.3C1040,213,1120,203,1200,181.3C1280,160,1360,128,1400,112L1440,96L1440,320L1400,320C1360,320,1280,320,1200,320C1120,320,1040,320,960,320C880,320,800,320,720,320C640,320,560,320,480,320C400,320,320,320,240,320C160,320,80,320,40,320L0,320Z"></path></svg>