<?xml version="1.0" standalone="no"?>
<!DOCTYPE svg PUBLIC "-//W3C//DTD SVG 20010904//EN"
 "http://www.w3.org/TR/2001/REC-SVG-20010904/DTD/svg10.dtd">
<svg version="1.0" xmlns="http://www.w3.org/2000/svg"
 width="96.000000pt" height="96.000000pt" viewBox="0 0 96.000000 96.000000"
 preserveAspectRatio="xMidYMid meet">

<g transform="translate(0.000000,96.000000) scale(0.100000,-0.100000)"
fill="#387ee7" stroke="none">
<path d="M209 811 l-29 -29 0 -302 0 -302 29 -29 29 -29 271 0 271 0 0 360 0
360 -271 0 -271 0 -29 -29z m511 -61 l0 -30 -235 0 c-200 0 -236 2 -241 15 -4
8 -4 22 0 30 5 13 41 15 241 15 l235 0 0 -30z m0 -330 l0 -240 -237 2 -238 3
-3 238 -2 237 240 0 240 0 0 -240z"/>
<path d="M330 540 l0 -30 165 0 165 0 0 30 0 30 -165 0 -165 0 0 -30z"/>
</g>
</svg>
