<?xml version="1.0" standalone="no"?>
<!DOCTYPE svg PUBLIC "-//W3C//DTD SVG 20010904//EN"
 "http://www.w3.org/TR/2001/REC-SVG-20010904/DTD/svg10.dtd">
<svg version="1.0" xmlns="http://www.w3.org/2000/svg"
 width="512.000000pt" height="512.000000pt" viewBox="0 0 512.000000 512.000000"
 preserveAspectRatio="xMidYMid meet">

<g transform="translate(0.000000,512.000000) scale(0.100000,-0.100000)"
fill="#000000" stroke="none">
<path d="M2355 4934 c-334 -50 -610 -165 -860 -359 -281 -219 -501 -545 -599
-892 -60 -208 -58 -188 -66 -1103 -6 -749 -8 -851 -23 -901 -53 -177 -146
-311 -291 -419 -90 -66 -106 -89 -106 -153 0 -52 28 -100 72 -124 31 -17 128
-18 2078 -18 1950 0 2047 1 2078 18 44 24 72 72 72 125 0 54 -20 94 -62 123
-138 95 -223 189 -282 312 -73 152 -69 100 -76 1037 -8 915 -6 895 -66 1103
-157 553 -585 998 -1131 1176 -179 59 -279 74 -503 77 -113 1 -218 0 -235 -2z
m420 -295 c105 -16 247 -56 344 -98 433 -186 735 -546 849 -1010 l26 -106 6
-850 c6 -759 9 -858 24 -924 30 -126 85 -257 147 -348 16 -23 29 -44 29 -47 0
-3 -738 -6 -1640 -6 -902 0 -1640 3 -1640 6 0 3 13 24 29 47 40 59 86 153 111
228 54 160 53 133 60 1044 l6 850 26 106 c69 279 202 516 398 709 324 319 773
465 1225 399z"/>
<path d="M2045 646 c-68 -30 -103 -103 -83 -174 16 -59 126 -159 228 -209 134
-66 191 -78 370 -78 179 0 237 12 369 77 103 51 214 152 229 210 28 103 -58
200 -161 182 -31 -5 -55 -20 -97 -60 -72 -68 -161 -110 -262 -123 -165 -20
-310 23 -418 122 -71 66 -115 79 -175 53z"/>
</g>
</svg>
