<?xml version="1.0" standalone="no"?>
<!DOCTYPE svg PUBLIC "-//W3C//DTD SVG 20010904//EN"
 "http://www.w3.org/TR/2001/REC-SVG-20010904/DTD/svg10.dtd">
<svg version="1.0" xmlns="http://www.w3.org/2000/svg"
 width="512.000000pt" height="512.000000pt" viewBox="0 0 512.000000 512.000000"
 preserveAspectRatio="xMidYMid meet">

<g transform="translate(0.000000,512.000000) scale(0.100000,-0.100000)"
fill="#387ee7" stroke="none">
<path d="M3800 5111 c-78 -24 -131 -71 -607 -544 -341 -338 -502 -505 -514
-532 -25 -53 -24 -92 4 -145 38 -77 116 -112 199 -90 38 10 100 69 528 495
l485 483 42 -13 c133 -40 341 -203 559 -436 150 -161 256 -322 270 -409 5 -35
1 -39 -573 -613 l-579 -578 -51 83 c-92 150 -174 251 -337 413 -305 304 -544
451 -751 463 -65 3 -92 0 -140 -18 -58 -21 -88 -49 -1168 -1133 -916 -920
-1112 -1121 -1135 -1167 -24 -49 -27 -66 -26 -150 0 -81 5 -107 31 -176 53
-141 137 -270 289 -444 329 -378 699 -615 930 -597 122 9 110 -1 717 605 370
369 564 571 577 598 26 53 25 101 -3 154 -42 80 -141 111 -221 70 -23 -11
-203 -186 -438 -425 -220 -223 -403 -405 -407 -405 -3 0 -28 36 -54 81 -78
129 -162 235 -307 383 -154 158 -285 267 -421 351 -52 31 -96 59 -99 62 -2 2
279 287 624 632 617 617 629 628 660 621 234 -54 764 -576 846 -833 10 -31 9
-46 -4 -85 -75 -216 37 -475 352 -817 109 -118 140 -137 215 -132 37 2 67 10
85 24 57 42 68 73 113 308 24 124 46 230 49 235 3 6 91 17 196 26 143 12 199
21 231 36 73 34 109 124 83 203 -8 24 -47 74 -103 134 -148 158 -254 309 -282
406 l-15 49 708 711 c566 567 714 720 733 760 31 66 37 171 14 251 -26 91
-126 289 -196 389 -85 120 -384 420 -504 504 -97 68 -291 167 -392 201 -63 20
-164 26 -213 11z m-1215 -1816 c106 -52 235 -154 390 -310 197 -197 320 -364
356 -483 l13 -43 -170 -170 c-93 -93 -171 -169 -175 -169 -3 0 -29 40 -58 89
-83 139 -176 257 -295 375 -184 180 -287 261 -513 403 -16 10 -1 28 152 183
194 195 175 187 300 125z m838 -1347 c20 -35 52 -85 71 -113 42 -58 42 -58
-69 -70 -87 -9 -112 -18 -152 -57 -38 -37 -44 -55 -74 -206 -18 -93 -24 -111
-35 -100 -30 31 -86 138 -106 202 l-21 68 169 169 c93 93 172 169 176 169 3 0
22 -28 41 -62z m-2968 -784 c249 -127 665 -561 739 -772 14 -39 14 -42 -2 -42
-30 0 -135 56 -227 121 -109 78 -388 352 -473 466 -67 91 -127 193 -137 236
-10 38 12 36 100 -9z"/>
</g>
</svg>
