<?xml version="1.0" standalone="no"?>
<!DOCTYPE svg PUBLIC "-//W3C//DTD SVG 20010904//EN"
 "http://www.w3.org/TR/2001/REC-SVG-20010904/DTD/svg10.dtd">
<svg version="1.0" xmlns="http://www.w3.org/2000/svg"
 width="512.000000pt" height="512.000000pt" viewBox="0 0 512.000000 512.000000"
 preserveAspectRatio="xMidYMid meet">

<g transform="translate(0.000000,512.000000) scale(0.100000,-0.100000)"
fill="#387ee7" stroke="none">
<path d="M1040 5104 c-57 -15 -393 -193 -515 -273 -91 -59 -249 -216 -312
-311 -96 -144 -162 -301 -194 -465 -21 -103 -18 -349 5 -455 36 -168 101 -314
219 -489 695 -1039 1828 -2172 2868 -2868 173 -117 313 -179 491 -220 105 -24
364 -24 478 1 234 50 436 160 606 330 109 110 158 181 297 436 108 198 137
275 137 360 0 100 -51 217 -123 288 -47 45 -600 400 -687 441 -45 20 -70 25
-132 25 -68 0 -86 -5 -145 -35 -64 -32 -79 -47 -247 -249 -98 -118 -187 -219
-197 -224 -14 -7 -36 3 -96 44 -665 456 -1392 1161 -1902 1844 -165 222 -205
284 -195 305 5 10 106 99 224 197 202 168 217 183 249 247 31 60 35 76 35 145
-1 57 -6 89 -22 126 -41 91 -411 662 -456 704 -106 98 -248 133 -386 96z m159
-298 c19 -10 84 -104 214 -309 103 -162 189 -301 192 -308 3 -8 1 -19 -3 -24
-12 -17 -241 -205 -249 -205 -9 0 -456 703 -461 724 -4 16 215 135 251 136 15
0 40 -6 56 -14z m-310 -684 l242 -383 -18 -47 c-26 -69 -23 -172 8 -245 47
-112 360 -527 644 -854 166 -191 637 -662 828 -828 327 -284 742 -597 854
-644 70 -30 174 -33 245 -7 l47 17 383 -242 c211 -133 388 -247 395 -253 31
-28 -135 -170 -280 -241 -146 -71 -225 -88 -402 -88 -134 0 -159 2 -238 26
-124 38 -219 89 -397 212 -987 685 -1970 1669 -2655 2655 -152 219 -210 343
-235 500 -43 274 56 577 252 773 50 50 61 58 72 46 7 -8 122 -186 255 -397z
m3608 -2709 c301 -191 323 -209 323 -269 0 -33 -121 -256 -136 -252 -21 5
-724 453 -724 461 0 8 188 237 205 249 5 4 16 6 24 3 7 -3 146 -89 308 -192z"/>
<path d="M2787 5099 c-39 -24 -77 -87 -77 -129 0 -13 9 -42 20 -65 28 -57 80
-85 158 -85 33 0 106 -5 163 -10 770 -78 1425 -601 1667 -1331 62 -189 102
-418 102 -591 0 -78 28 -130 85 -158 52 -25 78 -25 130 0 58 28 85 79 85 161
0 401 -142 864 -371 1208 -409 616 -1066 989 -1794 1017 -122 5 -132 4 -168
-17z"/>
<path d="M2816 4270 c-94 -28 -134 -149 -76 -230 32 -45 54 -53 191 -66 298
-30 503 -121 702 -313 206 -198 310 -422 341 -730 13 -137 21 -159 66 -191 67
-48 154 -33 206 36 28 36 29 42 27 135 -15 701 -576 1293 -1288 1359 -125 11
-130 11 -169 0z"/>
<path d="M2794 3416 c-49 -22 -79 -72 -79 -133 0 -89 51 -137 163 -153 151
-21 231 -100 252 -250 16 -114 63 -165 154 -165 65 0 118 36 137 92 27 81 -6
240 -73 351 -65 106 -199 213 -313 248 -73 22 -202 28 -241 10z"/>
</g>
</svg>
