<?xml version="1.0" standalone="no"?><svg xmlns="http://www.w3.org/2000/svg" viewBox="0 0 1440 320"><path fill="#0067FF" fill-opacity="1" d="M0,32L26.7,53.3C53.3,75,107,117,160,138.7C213.3,160,267,160,320,160C373.3,160,427,160,480,170.7C533.3,181,587,203,640,186.7C693.3,171,747,117,800,112C853.3,107,907,149,960,160C1013.3,171,1067,149,1120,149.3C1173.3,149,1227,171,1280,181.3C1333.3,192,1387,192,1413,192L1440,192L1440,320L1413.3,320C1386.7,320,1333,320,1280,320C1226.7,320,1173,320,1120,320C1066.7,320,1013,320,960,320C906.7,320,853,320,800,320C746.7,320,693,320,640,320C586.7,320,533,320,480,320C426.7,320,373,320,320,320C266.7,320,213,320,160,320C106.7,320,53,320,27,320L0,320Z"></path></svg>