<?xml version="1.0" standalone="no"?>
<svg xmlns:xlink="http://www.w3.org/1999/xlink" id="wave" style="transform:rotate(0deg); transition: 0.3s" viewBox="0 0 1440 170" version="1.1" xmlns="http://www.w3.org/2000/svg"><defs><linearGradient id="sw-gradient-0" x1="0" x2="0" y1="1" y2="0"><stop stop-color="rgba(142, 211, 133, 1)" offset="0%"/><stop stop-color="rgba(142, 211, 133, 1)" offset="100%"/></linearGradient></defs><path style="transform:translate(0, 0px); opacity:1" fill="url(#sw-gradient-0)" d="M0,51L60,53.8C120,57,240,62,360,53.8C480,45,600,23,720,14.2C840,6,960,11,1080,14.2C1200,17,1320,17,1440,14.2C1560,11,1680,6,1800,28.3C1920,51,2040,102,2160,110.5C2280,119,2400,85,2520,62.3C2640,40,2760,28,2880,28.3C3000,28,3120,40,3240,59.5C3360,79,3480,108,3600,107.7C3720,108,3840,79,3960,62.3C4080,45,4200,40,4320,56.7C4440,74,4560,113,4680,121.8C4800,130,4920,108,5040,90.7C5160,74,5280,62,5400,68C5520,74,5640,96,5760,87.8C5880,79,6000,40,6120,39.7C6240,40,6360,79,6480,85C6600,91,6720,62,6840,42.5C6960,23,7080,11,7200,28.3C7320,45,7440,91,7560,99.2C7680,108,7800,79,7920,68C8040,57,8160,62,8280,73.7C8400,85,8520,102,8580,110.5L8640,119L8640,170L8580,170C8520,170,8400,170,8280,170C8160,170,8040,170,7920,170C7800,170,7680,170,7560,170C7440,170,7320,170,7200,170C7080,170,6960,170,6840,170C6720,170,6600,170,6480,170C6360,170,6240,170,6120,170C6000,170,5880,170,5760,170C5640,170,5520,170,5400,170C5280,170,5160,170,5040,170C4920,170,4800,170,4680,170C4560,170,4440,170,4320,170C4200,170,4080,170,3960,170C3840,170,3720,170,3600,170C3480,170,3360,170,3240,170C3120,170,3000,170,2880,170C2760,170,2640,170,2520,170C2400,170,2280,170,2160,170C2040,170,1920,170,1800,170C1680,170,1560,170,1440,170C1320,170,1200,170,1080,170C960,170,840,170,720,170C600,170,480,170,360,170C240,170,120,170,60,170L0,170Z"/></svg>