<svg id="svg" version="1.1" xmlns="http://www.w3.org/2000/svg" xmlns:xlink="http://www.w3.org/1999/xlink" width="400" height="409.04761904761904" viewBox="0, 0, 400,409.04761904761904"><g id="svgg"><path id="path0" d="M163.200 66.242 C 158.664 67.018,154.121 70.017,152.270 73.458 C 149.860 77.938,150.126 63.406,150.300 180.912 L 150.400 248.425 155.300 248.312 L 160.200 248.200 160.403 174.200 C 160.514 133.500,160.649 100.155,160.703 100.100 C 161.123 99.668,272.402 100.067,272.412 100.500 C 272.418 100.775,272.413 108.877,272.400 118.505 C 272.386 128.976,272.531 136.298,272.761 136.727 C 273.135 137.425,282.015 137.732,283.065 137.083 C 283.597 136.755,283.460 78.364,282.926 77.400 C 282.682 76.960,282.149 75.794,281.741 74.809 C 279.745 69.986,274.929 66.935,268.530 66.438 C 264.207 66.102,165.094 65.918,163.200 66.242 M61.800 159.174 C 45.301 164.101,40.215 183.659,52.292 195.736 C 54.063 197.506,56.306 198.910,60.445 200.838 C 66.703 203.752,77.316 201.204,82.905 195.444 C 98.225 179.658,82.676 152.939,61.800 159.174 M70.826 162.414 C 71.796 162.933,71.767 163.831,70.659 167.600 L 69.778 170.600 66.773 170.814 C 62.138 171.145,59.004 173.827,58.088 178.245 L 57.766 179.800 53.630 179.915 L 49.493 180.029 49.761 177.515 C 50.469 170.869,56.018 164.595,62.800 162.771 C 65.759 161.976,69.681 161.801,70.826 162.414 M84.800 181.960 C 84.800 189.008,76.814 197.095,69.625 197.328 C 67.089 197.410,65.978 195.183,68.400 194.872 C 75.401 193.973,82.000 187.635,82.000 181.809 C 82.000 180.703,82.731 180.000,83.880 180.000 C 84.715 180.000,84.800 180.181,84.800 181.960 M282.000 236.880 C 280.935 238.582,276.714 243.200,276.224 243.200 C 276.063 243.200,275.132 243.774,274.156 244.475 L 272.381 245.750 272.411 267.175 L 272.441 288.600 217.447 288.950 C 187.200 289.143,161.996 289.185,161.436 289.045 L 160.420 288.790 160.310 282.295 L 160.200 275.800 155.291 275.688 L 150.382 275.575 150.491 299.688 L 150.600 323.800 151.576 325.783 C 153.365 329.419,156.792 332.478,160.658 333.891 C 163.038 334.760,270.582 335.015,272.439 334.155 C 272.968 333.911,274.030 333.435,274.800 333.097 C 277.931 331.724,281.329 327.867,282.691 324.142 C 283.384 322.245,283.878 238.050,283.209 235.941 C 283.051 235.443,282.756 235.672,282.000 236.880 M215.017 298.772 C 214.891 298.977,214.970 299.258,215.193 299.396 C 215.665 299.688,215.741 300.401,215.300 300.397 C 215.135 300.395,214.792 299.945,214.538 299.397 C 214.158 298.578,214.180 298.400,214.661 298.400 C 214.984 298.400,215.144 298.568,215.017 298.772 M213.900 300.102 C 214.175 300.009,214.400 300.128,214.400 300.367 C 214.400 300.854,213.965 300.915,213.033 300.557 C 212.685 300.424,212.406 300.019,212.413 299.657 C 212.424 299.060,212.470 299.058,212.913 299.635 C 213.181 299.984,213.625 300.194,213.900 300.102 M211.900 301.800 C 211.900 302.350,211.672 302.800,211.392 302.800 C 211.102 302.800,210.909 302.372,210.942 301.800 C 211.018 300.496,211.900 300.495,211.900 301.800 M215.600 301.800 C 215.600 302.130,215.420 302.400,215.200 302.400 C 214.980 302.400,214.800 302.130,214.800 301.800 C 214.800 301.470,214.980 301.200,215.200 301.200 C 215.420 301.200,215.600 301.470,215.600 301.800 M214.000 302.400 C 214.000 302.620,213.730 302.800,213.400 302.800 C 213.070 302.800,212.800 302.620,212.800 302.400 C 212.800 302.180,213.070 302.000,213.400 302.000 C 213.730 302.000,214.000 302.180,214.000 302.400 M212.400 304.200 C 212.400 304.530,212.220 304.800,212.000 304.800 C 211.780 304.800,211.600 304.530,211.600 304.200 C 211.600 303.870,211.780 303.600,212.000 303.600 C 212.220 303.600,212.400 303.870,212.400 304.200 M214.400 304.200 C 214.400 304.530,214.231 304.800,214.024 304.800 C 213.519 304.800,213.158 304.175,213.478 303.856 C 213.928 303.405,214.400 303.581,214.400 304.200 M210.922 305.876 C 210.660 305.973,210.554 306.335,210.686 306.680 C 210.838 307.075,210.744 307.248,210.434 307.145 C 210.162 307.054,209.959 306.895,209.981 306.790 C 210.354 305.076,210.538 304.780,210.954 305.224 C 211.283 305.575,211.275 305.746,210.922 305.876 M215.660 305.400 C 215.660 305.609,215.466 305.845,215.230 305.923 C 214.994 306.002,214.800 305.767,214.800 305.400 C 214.800 305.033,214.994 304.798,215.230 304.877 C 215.466 304.955,215.660 305.191,215.660 305.400 M213.200 305.754 C 213.200 306.511,212.034 307.979,211.771 307.553 C 211.592 307.264,211.660 306.980,211.929 306.890 C 212.188 306.804,212.400 306.478,212.400 306.167 C 212.400 305.855,212.580 305.600,212.800 305.600 C 213.020 305.600,213.200 305.669,213.200 305.754 M214.400 307.400 C 214.400 307.730,214.231 308.000,214.024 308.000 C 213.519 308.000,213.158 307.375,213.478 307.056 C 213.928 306.605,214.400 306.781,214.400 307.400 M216.400 307.133 C 216.400 307.654,215.924 308.001,215.538 307.761 C 215.124 307.506,215.481 306.800,216.024 306.800 C 216.231 306.800,216.400 306.950,216.400 307.133 M215.600 309.200 C 215.600 309.420,215.401 309.600,215.157 309.600 C 214.914 309.600,214.818 309.870,214.945 310.200 C 215.085 310.565,214.945 310.800,214.587 310.800 C 213.871 310.800,213.858 310.617,214.496 309.595 C 215.026 308.746,215.600 308.541,215.600 309.200 M214.000 311.600 C 214.000 311.820,213.730 312.000,213.400 312.000 C 213.070 312.000,212.800 311.820,212.800 311.600 C 212.800 311.380,213.070 311.200,213.400 311.200 C 213.730 311.200,214.000 311.380,214.000 311.600 M215.600 312.200 C 215.600 312.530,215.420 312.800,215.200 312.800 C 214.980 312.800,214.800 312.530,214.800 312.200 C 214.800 311.870,214.980 311.600,215.200 311.600 C 215.420 311.600,215.600 311.870,215.600 312.200 M148.629 349.829 C 147.893 350.564,147.869 350.802,148.390 352.174 L 148.780 353.200 211.910 353.200 C 260.478 353.200,275.151 353.089,275.520 352.720 C 276.390 351.850,276.095 350.172,274.981 349.664 C 273.197 348.851,149.445 349.012,148.629 349.829 " stroke="none" fill="#104f7f" fill-rule="evenodd"></path><path id="path1" d="M0.000 204.400 L 0.000 408.800 200.000 408.800 L 400.000 408.800 400.000 204.400 L 400.000 0.000 200.000 0.000 L 0.000 0.000 0.000 204.400 M177.600 2.576 C 194.115 5.523,205.260 15.654,211.986 33.835 C 212.414 34.992,212.648 35.108,215.721 35.688 C 225.756 37.581,235.314 44.560,240.844 54.031 C 243.253 58.157,245.200 62.677,245.200 64.146 C 245.200 65.012,245.407 65.104,247.900 65.339 C 253.608 65.878,260.380 65.529,259.136 64.760 C 257.740 63.897,259.523 63.671,262.200 64.371 C 263.740 64.774,266.170 65.230,267.600 65.384 C 270.860 65.736,275.115 66.955,276.348 67.888 C 279.832 70.529,282.083 73.198,282.616 75.322 C 282.760 75.897,283.131 76.577,283.439 76.833 C 283.911 77.224,284.001 81.980,284.006 106.749 C 284.009 122.947,284.153 136.421,284.324 136.691 C 284.565 137.070,290.684 137.208,310.985 137.291 C 331.631 137.377,337.370 137.508,337.500 137.900 C 337.592 138.175,337.976 138.400,338.355 138.400 C 339.266 138.400,341.325 140.612,342.225 142.557 C 342.901 144.019,342.947 146.366,342.972 181.357 C 343.003 222.605,343.094 221.092,340.430 223.600 C 337.452 226.403,339.781 226.178,311.405 226.400 C 286.203 226.597,285.809 226.612,285.671 227.400 C 285.595 227.840,285.185 229.370,284.762 230.800 C 284.024 233.290,283.988 235.304,283.896 278.421 L 283.800 323.442 282.446 326.110 C 280.697 329.555,278.356 331.897,274.719 333.840 L 271.800 335.400 219.000 335.514 C 186.242 335.584,165.248 335.480,163.691 335.239 C 157.227 334.238,151.068 328.645,150.168 322.958 C 150.032 322.101,149.808 321.220,149.669 321.000 C 149.531 320.780,149.414 310.520,149.409 298.200 L 149.400 275.800 120.600 275.600 L 91.800 275.400 91.695 261.900 L 91.589 248.400 120.515 248.400 L 149.441 248.400 149.406 181.100 L 149.371 113.800 124.185 113.586 C 95.412 113.341,97.035 113.523,89.239 109.681 C 65.083 97.778,64.674 62.091,88.552 49.643 C 90.286 48.739,91.951 48.000,92.252 48.000 C 92.665 48.000,92.801 47.287,92.802 45.100 C 92.805 41.951,93.224 39.938,94.426 37.304 C 94.852 36.372,95.200 35.485,95.200 35.334 C 95.200 34.612,98.352 30.607,99.961 29.286 C 108.218 22.501,118.508 21.827,126.942 27.519 C 128.982 28.896,129.030 28.873,130.332 25.887 C 135.611 13.781,147.417 5.407,164.200 1.862 C 166.532 1.369,172.670 1.696,177.600 2.576 M249.800 61.315 C 251.974 61.726,253.422 62.416,252.852 62.768 C 252.313 63.101,247.770 62.400,246.871 61.844 C 246.081 61.355,247.095 60.321,247.942 60.752 C 248.304 60.936,249.140 61.190,249.800 61.315 M349.725 68.975 C 350.591 69.632,350.176 71.757,348.587 74.800 C 348.070 75.790,347.070 78.040,346.364 79.800 C 344.924 83.394,344.216 84.400,343.129 84.400 C 341.617 84.400,341.363 82.619,342.535 80.224 C 343.121 79.029,343.600 77.954,343.600 77.837 C 343.600 77.720,344.029 76.673,344.553 75.512 C 345.077 74.350,345.638 72.950,345.799 72.400 C 346.766 69.098,348.217 67.832,349.725 68.975 M363.291 69.100 C 363.629 69.485,364.035 70.250,364.194 70.800 C 364.353 71.350,364.722 72.179,365.013 72.643 C 365.305 73.106,365.898 74.565,366.331 75.885 C 366.764 77.204,367.613 79.295,368.218 80.530 C 369.144 82.421,369.235 82.876,368.793 83.408 C 367.225 85.297,364.938 82.569,362.995 76.493 C 362.625 75.335,361.889 73.491,361.361 72.395 C 359.866 69.297,361.306 66.839,363.291 69.100 M287.400 74.205 C 288.757 74.792,289.343 76.000,288.271 76.000 C 287.860 76.000,283.546 73.897,282.860 73.362 C 282.123 72.788,283.483 72.511,284.621 73.004 C 285.380 73.332,286.630 73.872,287.400 74.205 M296.340 79.071 C 299.342 80.450,300.940 82.000,299.360 82.000 C 298.576 82.000,294.000 79.220,294.000 78.743 C 294.000 78.226,294.720 78.327,296.340 79.071 M340.717 82.000 C 340.896 83.532,339.945 84.573,338.662 84.251 C 337.607 83.987,337.088 81.845,337.886 81.048 C 338.606 80.327,340.600 80.998,340.717 82.000 M364.400 82.413 C 364.400 84.577,364.499 84.560,354.676 84.152 C 346.249 83.802,346.199 83.795,346.069 82.878 C 345.788 80.896,346.233 80.800,355.649 80.800 L 364.400 80.800 364.400 82.413 M372.796 81.395 C 373.665 82.443,372.962 84.000,371.619 84.000 C 370.338 84.000,369.753 83.009,370.200 81.600 C 370.503 80.645,372.071 80.521,372.796 81.395 M308.373 86.611 C 310.568 88.228,311.153 89.200,309.930 89.200 C 309.234 89.200,304.824 85.840,304.812 85.300 C 304.790 84.380,305.892 84.786,308.373 86.611 M370.812 85.814 C 371.350 86.463,371.354 86.438,369.606 94.200 C 368.829 97.653,368.189 100.649,367.796 102.672 C 367.378 104.823,367.390 104.821,355.157 104.706 L 343.810 104.600 343.331 103.600 C 342.913 102.727,341.123 94.799,339.920 88.495 C 339.242 84.938,338.033 85.200,355.138 85.200 C 368.282 85.200,370.370 85.282,370.812 85.814 M359.275 88.354 C 358.498 88.834,358.792 93.400,359.600 93.400 C 360.052 93.400,360.230 92.817,360.322 91.042 C 360.449 88.580,360.150 87.813,359.275 88.354 M346.180 89.338 C 345.744 91.075,346.141 93.382,346.900 93.526 C 347.509 93.641,347.600 93.317,347.600 91.029 C 347.600 88.297,346.708 87.234,346.180 89.338 M350.576 88.918 C 350.115 90.118,350.572 93.400,351.200 93.400 C 351.983 93.400,352.078 88.759,351.300 88.500 C 351.025 88.408,350.700 88.596,350.576 88.918 M354.650 89.013 C 354.002 90.703,354.498 93.600,355.435 93.600 C 356.633 93.600,356.743 88.709,355.550 88.484 C 355.193 88.416,354.788 88.654,354.650 89.013 M362.980 89.338 C 362.544 91.075,362.941 93.382,363.700 93.526 C 364.309 93.641,364.400 93.317,364.400 91.029 C 364.400 88.297,363.508 87.234,362.980 89.338 M318.201 94.100 C 320.000 95.519,321.065 97.200,320.166 97.200 C 319.599 97.200,315.200 93.428,315.200 92.941 C 315.200 92.034,315.949 92.323,318.201 94.100 M346.267 95.467 C 345.933 95.800,345.915 99.314,346.243 100.167 C 346.898 101.876,347.600 100.755,347.600 98.000 C 347.600 95.323,347.190 94.544,346.267 95.467 M350.565 95.748 C 350.105 96.946,350.583 100.600,351.200 100.600 C 351.662 100.600,351.827 99.981,351.918 97.900 C 352.033 95.276,351.234 94.004,350.565 95.748 M354.643 95.833 C 353.940 97.663,354.615 101.209,355.555 100.628 C 356.244 100.202,356.140 95.200,355.443 95.200 C 355.136 95.200,354.776 95.485,354.643 95.833 M359.075 95.458 C 358.620 95.913,358.766 100.331,359.245 100.628 C 359.994 101.091,360.413 99.907,360.304 97.632 C 360.208 95.623,359.739 94.794,359.075 95.458 M363.200 97.776 C 363.200 101.287,364.254 102.056,364.683 98.857 C 364.956 96.825,364.560 95.200,363.792 95.200 C 363.331 95.200,363.200 95.768,363.200 97.776 M327.715 102.622 C 329.719 104.531,330.278 105.600,329.273 105.600 C 328.668 105.600,324.800 101.667,324.800 101.053 C 324.800 100.027,325.239 100.263,327.715 102.622 M336.499 111.668 C 338.316 113.644,338.691 114.376,338.159 114.908 C 337.848 115.219,333.634 110.760,333.615 110.100 C 333.585 109.079,334.652 109.659,336.499 111.668 M214.600 113.313 C 213.774 113.616,205.255 113.761,187.300 113.777 L 161.200 113.800 161.200 181.100 L 161.200 248.400 189.100 248.400 L 217.000 248.401 216.800 237.100 L 216.600 225.800 214.714 223.878 C 212.083 221.196,212.200 223.190,212.200 181.200 C 212.200 138.745,211.935 142.415,215.227 139.220 L 216.812 137.682 216.706 125.374 C 216.639 117.589,216.453 113.031,216.200 112.969 C 215.980 112.916,215.260 113.071,214.600 113.313 M93.389 116.383 C 93.698 116.883,90.033 121.600,89.336 121.600 C 88.390 121.600,88.762 120.655,90.635 118.300 C 92.465 116.000,92.946 115.665,93.389 116.383 M344.091 120.781 C 345.685 122.643,346.632 124.302,346.294 124.639 C 345.914 125.019,345.282 124.480,343.582 122.329 C 341.131 119.229,341.584 117.853,344.091 120.781 M85.600 126.833 C 85.600 127.538,82.608 131.973,82.124 131.987 C 80.839 132.022,81.680 130.083,84.500 126.504 C 84.914 125.979,85.600 126.184,85.600 126.833 M350.882 130.300 C 352.815 132.530,354.297 137.016,352.417 134.945 C 351.344 133.763,349.241 130.257,349.426 129.958 C 349.760 129.418,350.210 129.524,350.882 130.300 M187.125 140.600 C 192.533 145.990,197.102 150.400,197.279 150.400 C 197.455 150.400,197.600 147.256,197.600 143.413 C 197.600 137.366,197.681 136.456,198.200 136.655 C 199.240 137.055,199.077 152.224,198.026 152.786 C 197.105 153.279,183.246 153.344,182.481 152.859 C 181.181 152.034,183.217 151.705,189.338 151.752 C 192.824 151.778,195.745 151.688,195.830 151.552 C 195.914 151.416,191.560 146.880,186.155 141.472 C 177.746 133.060,175.822 130.800,177.070 130.800 C 177.193 130.800,181.718 135.210,187.125 140.600 M121.916 131.495 C 120.659 131.574,118.499 131.575,117.116 131.497 C 115.732 131.418,116.760 131.353,119.400 131.353 C 122.040 131.352,123.172 131.416,121.916 131.495 M127.816 131.627 C 128.142 132.153,128.014 132.286,127.015 132.462 C 126.515 132.550,126.177 132.345,126.085 131.900 C 125.924 131.115,127.360 130.888,127.816 131.627 M125.767 133.743 C 125.628 134.104,125.375 134.400,125.206 134.400 C 124.925 134.400,119.990 139.204,116.320 143.049 C 113.363 146.148,111.618 147.751,111.419 147.552 C 111.307 147.440,114.485 144.079,118.482 140.082 C 125.549 133.016,126.294 132.368,125.767 133.743 M127.896 140.500 C 127.818 141.875,127.754 140.750,127.754 138.000 C 127.754 135.250,127.818 134.125,127.896 135.500 C 127.974 136.875,127.974 139.125,127.896 140.500 M78.800 137.776 C 78.800 138.093,78.617 138.466,78.392 138.605 C 78.168 138.743,77.535 139.744,76.986 140.828 C 76.436 141.913,75.720 142.800,75.393 142.800 C 74.489 142.800,74.666 142.138,76.257 139.560 C 77.636 137.326,78.800 136.509,78.800 137.776 M358.401 142.939 C 359.638 145.558,359.847 146.400,359.260 146.400 C 358.829 146.400,356.000 141.663,356.000 140.940 C 356.000 139.537,357.308 140.626,358.401 142.939 M71.600 148.004 C 77.399 148.845,81.664 150.271,84.273 152.239 C 84.974 152.768,85.672 153.200,85.826 153.200 C 86.369 153.200,91.079 157.426,92.517 159.204 C 100.856 169.513,102.422 184.491,96.302 195.400 C 96.055 195.840,95.588 196.740,95.264 197.400 C 92.634 202.759,84.699 208.870,77.000 211.467 C 73.087 212.787,63.062 213.012,59.432 211.861 C 56.941 211.072,56.800 211.179,56.800 213.853 C 56.800 215.739,56.699 216.039,56.100 215.921 C 55.524 215.808,55.400 215.347,55.399 213.324 C 55.398 211.971,55.308 210.789,55.199 210.698 C 55.090 210.606,53.920 209.932,52.600 209.201 C 46.361 205.743,42.933 202.455,39.292 196.439 C 38.573 195.250,37.873 193.810,37.737 193.239 C 37.601 192.667,37.328 191.993,37.130 191.741 C 36.740 191.244,36.717 191.162,35.795 187.012 C 34.813 182.591,34.964 174.531,36.089 171.400 C 38.593 164.430,40.276 161.665,44.672 157.300 C 46.944 155.045,49.072 153.200,49.401 153.200 C 49.731 153.200,50.000 153.046,50.000 152.858 C 50.000 152.339,57.034 149.288,60.200 148.434 C 63.312 147.595,67.657 147.431,71.600 148.004 M110.400 148.612 C 110.400 148.729,109.461 149.764,108.314 150.912 C 106.092 153.135,106.411 152.411,108.760 149.900 C 110.161 148.401,110.400 148.214,110.400 148.612 M62.600 151.013 C 43.600 154.180,32.871 173.816,40.315 191.800 C 48.816 212.338,77.104 215.900,90.825 198.160 C 107.171 177.027,88.966 146.617,62.600 151.013 M364.176 154.712 C 364.946 156.972,364.960 157.600,364.239 157.600 C 363.618 157.600,361.482 152.514,361.852 151.917 C 362.249 151.274,363.529 152.813,364.176 154.712 M318.582 159.368 C 310.519 167.498,311.552 166.987,308.800 164.200 C 306.221 161.589,306.062 161.565,304.234 163.500 L 302.817 165.000 306.901 169.100 C 309.148 171.355,311.170 173.200,311.395 173.200 C 311.867 173.200,328.800 156.299,328.800 155.828 C 328.800 155.402,326.836 153.078,326.128 152.668 C 325.708 152.424,323.704 154.203,318.582 159.368 M73.388 158.657 C 86.755 162.074,93.565 177.792,87.168 190.463 C 85.886 193.002,80.733 198.554,78.800 199.478 C 68.464 204.420,59.134 203.178,51.856 195.891 C 38.450 182.468,45.848 161.378,65.200 157.851 C 66.706 157.577,70.701 157.970,73.388 158.657 M223.600 162.800 C 222.587 163.813,222.593 164.429,223.629 165.746 L 224.458 166.800 254.167 166.800 C 287.023 166.800,285.200 166.945,285.200 164.330 C 285.200 161.893,286.627 162.000,254.069 162.000 C 224.933 162.000,224.386 162.014,223.600 162.800 M64.951 164.100 C 65.084 164.815,65.310 166.435,65.452 167.700 L 65.711 170.000 67.656 170.000 C 69.450 170.000,69.600 169.925,69.600 169.024 C 69.600 168.487,69.780 167.936,70.000 167.800 C 70.220 167.664,70.400 167.035,70.400 166.402 C 70.400 165.770,70.570 164.806,70.777 164.260 C 71.257 162.997,70.790 162.800,67.322 162.800 L 64.709 162.800 64.951 164.100 M368.819 166.656 C 369.691 169.277,369.668 169.865,368.708 169.497 C 368.041 169.241,366.235 164.191,366.599 163.601 C 367.090 162.807,367.916 163.943,368.819 166.656 M371.919 177.100 C 372.757 179.918,372.974 182.125,372.395 181.932 C 371.931 181.777,370.451 177.419,370.414 176.100 C 370.382 174.964,371.506 175.711,371.919 177.100 M374.599 189.100 C 374.716 189.705,374.997 190.994,375.222 191.964 C 375.481 193.081,375.492 193.868,375.251 194.109 C 374.634 194.726,374.100 194.111,373.858 192.503 C 373.733 191.676,373.514 190.325,373.372 189.500 C 373.052 187.653,374.242 187.265,374.599 189.100 M311.000 189.558 C 303.633 189.761,301.963 189.918,300.742 190.526 C 291.012 195.368,291.488 208.917,301.534 213.049 C 304.805 214.394,322.382 214.494,326.247 213.189 C 336.219 209.821,337.048 195.482,327.547 190.697 C 324.903 189.366,322.933 189.230,311.000 189.558 M326.887 191.331 C 338.735 196.751,333.496 214.567,320.502 213.040 C 311.011 211.925,307.182 199.153,314.539 193.148 C 318.579 189.851,322.417 189.286,326.887 191.331 M376.476 202.233 C 377.042 205.421,376.690 207.922,375.875 206.500 C 375.351 205.586,375.172 200.324,375.670 200.490 C 375.960 200.587,376.322 201.371,376.476 202.233 M256.247 206.749 C 255.501 207.572,254.693 216.481,255.036 220.100 C 255.179 221.612,255.092 222.000,254.608 222.000 C 254.274 222.000,254.000 221.811,254.000 221.580 C 254.000 220.335,250.438 219.717,249.172 220.742 L 248.255 221.485 249.872 223.442 C 250.762 224.519,251.769 225.940,252.111 226.600 C 253.837 229.935,255.163 233.290,255.793 235.913 C 256.929 240.644,257.685 241.026,266.200 241.172 C 271.160 241.258,271.877 240.858,272.242 237.800 C 272.373 236.700,272.822 234.848,273.240 233.685 C 273.802 232.122,274.000 230.488,274.000 227.423 L 274.000 223.275 272.122 222.031 C 270.249 220.791,265.970 219.301,263.239 218.939 C 259.850 218.490,260.128 218.913,259.803 213.704 C 259.333 206.173,258.407 204.361,256.247 206.749 M377.229 216.200 C 377.437 221.579,377.235 224.878,376.708 224.703 C 376.203 224.534,375.767 214.428,376.214 213.233 C 376.647 212.075,377.124 213.467,377.229 216.200 M56.718 225.371 C 56.808 227.773,56.718 228.439,56.318 228.307 C 55.968 228.191,55.762 227.129,55.682 225.029 C 55.592 222.627,55.682 221.961,56.082 222.093 C 56.432 222.209,56.638 223.271,56.718 225.371 M376.717 234.134 C 376.417 238.812,375.200 239.514,375.200 235.009 C 375.200 232.061,375.447 231.200,376.295 231.200 C 376.804 231.200,376.874 231.689,376.717 234.134 M57.680 236.833 C 57.834 238.025,58.014 239.430,58.080 239.956 C 58.207 240.965,57.307 241.645,57.051 240.733 C 56.531 238.879,56.006 235.114,56.219 234.769 C 56.774 233.871,57.414 234.775,57.680 236.833 M375.057 245.500 C 374.920 246.325,374.804 247.540,374.798 248.200 C 374.784 249.801,374.189 250.749,373.579 250.139 C 373.169 249.729,373.518 246.615,374.211 244.500 C 374.616 243.264,375.294 244.065,375.057 245.500 M45.089 246.300 C 45.607 247.440,45.234 255.678,44.674 255.493 C 44.379 255.396,44.124 254.026,44.000 251.868 L 43.800 248.399 35.806 256.381 C 31.410 260.771,27.750 264.551,27.673 264.782 C 27.479 265.364,26.504 265.306,26.292 264.700 C 26.196 264.425,29.904 260.420,34.534 255.800 L 42.950 247.400 39.407 247.200 C 37.195 247.075,35.805 246.822,35.707 246.527 C 35.358 245.469,44.611 245.245,45.089 246.300 M59.541 249.100 C 60.483 253.352,60.499 253.600,59.839 253.600 C 59.496 253.600,59.123 253.195,59.011 252.700 C 57.828 247.492,57.804 247.200,58.560 247.200 C 58.903 247.200,59.284 247.938,59.541 249.100 M34.330 252.131 C 34.463 252.824,34.097 252.850,27.275 252.628 C 17.745 252.319,18.800 251.071,18.800 262.650 L 18.800 272.414 28.700 272.307 L 38.600 272.200 38.800 264.699 C 39.073 254.444,39.767 254.763,39.908 265.209 C 40.003 272.219,39.937 273.249,39.382 273.462 C 38.750 273.705,34.152 273.760,23.300 273.655 L 17.600 273.600 17.600 262.611 L 17.600 251.623 23.100 251.511 C 33.741 251.296,34.175 251.320,34.330 252.131 M225.362 252.700 C 223.183 253.945,222.944 254.173,221.864 256.035 C 218.444 261.934,223.999 267.990,230.925 265.915 C 232.266 265.513,232.575 265.526,232.729 265.987 C 233.064 266.993,238.178 272.000,238.870 272.000 C 239.904 272.000,240.170 270.539,239.328 269.492 C 238.099 267.966,234.544 264.800,234.059 264.800 C 233.384 264.800,233.500 263.973,234.300 263.090 C 235.534 261.726,235.282 256.911,233.880 255.071 C 231.825 252.375,227.863 251.271,225.362 252.700 M318.800 252.943 C 318.800 253.242,317.834 254.128,316.654 254.912 C 313.764 256.830,306.800 264.879,306.800 266.300 C 306.800 266.421,306.371 267.438,305.846 268.560 C 302.408 275.910,302.132 286.742,305.213 293.400 C 305.417 293.840,305.765 294.701,305.987 295.314 C 307.367 299.121,314.134 307.236,317.258 308.830 C 318.804 309.618,319.351 310.800,318.170 310.800 C 317.322 310.800,313.521 307.806,310.725 304.936 C 307.399 301.520,303.854 295.101,302.587 290.200 C 301.256 285.053,301.816 273.754,303.603 269.700 C 303.821 269.205,304.219 268.305,304.488 267.700 C 304.756 267.095,305.439 265.880,306.005 265.000 C 306.571 264.120,307.230 262.950,307.470 262.400 C 309.005 258.870,318.800 250.694,318.800 252.943 M231.701 254.227 C 236.778 257.982,233.819 266.107,227.593 265.509 C 221.524 264.926,219.869 256.864,225.213 253.916 C 226.960 252.952,230.186 253.107,231.701 254.227 M372.800 256.969 C 372.800 259.425,371.236 263.370,370.540 262.673 C 370.162 262.295,371.047 257.666,371.632 256.962 C 372.232 256.238,372.800 256.242,372.800 256.969 M101.125 259.436 C 99.235 260.426,99.269 263.367,101.183 264.391 C 101.684 264.659,112.187 264.800,131.704 264.800 L 161.461 264.800 162.330 263.874 C 163.404 262.732,163.445 261.191,162.435 259.944 L 161.671 259.000 131.928 258.940 C 107.244 258.891,102.005 258.975,101.125 259.436 M324.400 259.180 C 324.400 259.388,323.725 260.052,322.900 260.654 C 320.728 262.239,317.200 265.695,317.200 266.237 C 317.200 266.493,316.901 266.949,316.536 267.251 C 313.232 269.983,311.171 282.368,312.984 288.602 C 314.637 294.291,318.281 299.342,323.414 303.059 C 324.349 303.737,324.498 304.025,324.117 304.422 C 323.014 305.573,315.970 298.628,313.876 294.323 C 311.179 288.780,309.712 279.273,311.127 276.505 C 311.325 276.117,311.606 275.175,311.751 274.412 C 312.353 271.246,315.484 265.837,318.336 263.034 C 322.013 259.422,324.400 257.904,324.400 259.180 M62.398 261.300 C 62.634 262.235,63.001 263.413,63.214 263.919 C 63.793 265.296,63.688 266.076,62.944 265.929 C 62.273 265.797,60.877 262.216,60.826 260.500 C 60.779 258.891,61.939 259.482,62.398 261.300 M380.161 265.358 C 382.834 266.475,382.800 266.265,382.800 281.675 L 382.800 295.572 381.559 296.986 L 380.317 298.400 366.618 298.400 C 347.600 298.400,349.084 299.819,349.062 281.617 C 349.044 266.604,349.090 266.419,353.177 265.179 C 355.140 264.583,378.680 264.739,380.161 265.358 M329.200 266.393 C 329.200 266.609,328.073 267.914,326.695 269.293 C 319.044 276.950,319.355 287.940,327.413 294.676 C 329.212 296.180,329.698 297.200,328.615 297.200 C 326.943 297.200,322.198 291.733,320.973 288.395 C 320.301 286.564,320.253 286.355,319.782 283.173 C 319.455 280.968,320.386 276.089,321.659 273.326 C 323.067 270.272,329.200 264.633,329.200 266.393 M366.000 277.500 L 366.000 286.200 362.370 286.200 L 358.740 286.200 357.370 287.694 C 353.096 292.355,361.922 297.038,366.623 292.604 L 368.000 291.306 368.000 282.653 C 368.000 273.028,367.911 273.277,370.671 275.148 C 373.825 277.286,374.905 278.439,375.789 280.614 C 376.802 283.106,377.201 283.055,377.199 280.433 C 377.197 278.045,376.274 276.585,373.130 273.994 C 371.738 272.848,370.150 271.525,369.600 271.055 C 368.467 270.086,366.536 268.800,366.214 268.800 C 366.096 268.800,366.000 272.715,366.000 277.500 M66.648 274.623 C 67.736 277.462,67.792 278.000,67.000 278.000 C 66.670 278.000,66.400 277.952,66.400 277.894 C 66.400 277.836,66.040 276.804,65.600 275.600 C 65.160 274.396,64.800 273.079,64.800 272.672 C 64.800 271.263,65.742 272.258,66.648 274.623 M161.119 281.997 L 161.238 288.400 189.029 288.400 L 216.820 288.400 216.710 282.100 L 216.600 275.800 188.800 275.697 L 161.000 275.594 161.119 281.997 M336.134 278.014 C 339.716 280.128,338.052 286.000,333.871 286.000 C 332.640 286.000,332.039 285.719,330.960 284.640 C 327.283 280.963,331.651 275.369,336.134 278.014 M332.254 279.629 C 330.964 280.643,330.849 282.449,332.000 283.600 C 334.137 285.737,338.120 283.276,336.735 280.674 C 335.673 278.681,333.965 278.283,332.254 279.629 M71.609 286.418 C 72.953 289.080,73.052 289.600,72.214 289.600 C 71.337 289.600,68.953 284.723,69.443 283.931 C 69.812 283.333,70.382 283.987,71.609 286.418 M77.315 297.382 C 78.972 300.263,79.126 300.919,78.100 300.729 C 77.715 300.658,76.997 299.801,76.505 298.825 C 76.012 297.848,75.427 296.867,75.205 296.645 C 74.982 296.422,74.800 295.916,74.800 295.520 C 74.800 294.073,75.865 294.862,77.315 297.382 M102.499 298.350 C 108.941 299.960,115.965 305.202,118.108 310.000 C 118.354 310.550,118.764 311.270,119.021 311.600 C 122.548 316.142,122.272 328.720,118.510 334.892 C 118.009 335.713,117.600 336.549,117.600 336.750 C 117.600 337.498,111.556 343.166,109.516 344.332 C 89.837 355.571,66.811 338.256,72.339 316.376 C 75.657 303.245,89.347 295.063,102.499 298.350 M353.390 303.184 C 353.658 303.617,350.388 308.471,349.666 308.711 C 348.854 308.982,349.157 308.029,350.600 305.773 C 351.370 304.569,352.000 303.408,352.000 303.192 C 352.000 302.687,353.079 302.681,353.390 303.184 M88.600 311.569 C 78.194 313.576,80.726 326.759,93.340 336.241 C 96.272 338.446,96.841 338.436,99.800 336.127 C 111.267 327.181,114.550 316.354,106.967 312.485 C 104.071 311.008,101.504 311.180,98.744 313.037 C 97.108 314.139,96.467 314.377,96.004 314.055 C 92.775 311.808,90.799 311.144,88.600 311.569 M345.985 314.300 C 345.965 315.200,342.668 318.957,342.076 318.754 C 341.517 318.562,344.800 313.634,345.500 313.614 C 345.775 313.606,345.993 313.915,345.985 314.300 M338.400 323.957 C 338.400 324.575,334.753 328.400,334.163 328.400 C 333.265 328.400,333.489 327.844,335.271 325.654 C 336.745 323.842,338.400 322.944,338.400 323.957 M329.600 333.363 C 329.600 333.953,325.775 337.600,325.157 337.600 C 323.629 337.600,327.717 332.876,329.300 332.812 C 329.465 332.805,329.600 333.053,329.600 333.363 M320.167 341.547 C 320.566 342.193,315.820 346.183,315.147 345.767 C 314.597 345.427,315.216 344.626,317.400 342.853 C 319.513 341.137,319.823 340.990,320.167 341.547 M290.323 342.065 C 291.355 342.320,292.290 342.655,292.400 342.809 C 292.510 342.963,293.184 343.388,293.898 343.753 C 295.465 344.556,298.240 347.962,298.576 349.494 L 298.819 350.600 303.105 350.461 C 305.740 350.375,307.809 350.106,308.476 349.761 C 309.901 349.024,310.101 349.052,309.815 349.952 C 309.584 350.682,310.081 350.702,326.088 350.602 C 344.658 350.487,344.800 350.505,344.800 352.988 C 344.800 355.684,345.571 355.600,320.911 355.600 C 305.616 355.600,298.800 355.731,298.800 356.024 C 298.800 356.257,298.980 356.336,299.200 356.200 C 299.809 355.824,299.677 356.380,298.996 357.061 C 298.664 357.393,298.481 357.808,298.590 357.983 C 298.698 358.158,297.754 359.382,296.493 360.702 C 293.682 363.644,290.691 364.936,287.161 364.733 C 285.691 364.648,284.693 364.791,284.264 365.147 C 283.584 365.711,282.400 365.514,282.400 364.836 C 282.400 364.622,282.588 364.331,282.818 364.189 C 283.048 364.046,282.283 363.266,281.118 362.453 C 278.799 360.836,276.847 357.845,276.778 355.800 C 276.755 355.140,276.646 354.825,276.535 355.100 C 276.375 355.497,263.271 355.600,212.892 355.600 L 149.452 355.600 148.526 354.730 C 147.784 354.033,147.600 353.439,147.600 351.739 C 147.600 348.053,141.126 348.379,212.103 348.496 L 274.736 348.600 275.694 349.500 C 276.778 350.519,277.200 350.629,277.200 349.894 C 277.200 345.386,284.983 340.743,290.323 342.065 M118.348 345.234 C 120.147 346.667,120.997 348.006,120.100 347.997 C 119.609 347.992,115.200 344.367,115.200 343.968 C 115.200 343.191,116.375 343.664,118.348 345.234 M128.420 352.479 C 130.431 353.897,131.457 355.200,130.563 355.200 C 129.939 355.200,125.200 351.767,125.200 351.315 C 125.200 350.458,125.926 350.720,128.420 352.479 M139.462 359.020 C 143.517 361.288,142.901 362.502,138.781 360.358 C 136.243 359.037,135.806 358.638,136.200 358.000 C 136.557 357.422,136.667 357.457,139.462 359.020 M150.537 364.555 C 152.790 365.552,153.530 366.241,152.945 366.798 C 152.468 367.253,147.200 364.821,147.200 364.147 C 147.200 363.361,148.080 363.468,150.537 364.555 M276.800 367.951 C 276.800 368.144,275.945 368.663,274.900 369.105 C 272.097 370.290,271.296 370.479,271.012 370.020 C 270.781 369.645,271.282 369.356,274.400 368.068 C 275.657 367.548,276.800 367.492,276.800 367.951 M162.900 369.680 C 165.106 370.441,165.621 370.893,164.837 371.377 C 164.129 371.815,159.418 369.839,159.265 369.040 C 159.149 368.441,159.273 368.346,159.859 368.585 C 160.267 368.751,161.635 369.243,162.900 369.680 M264.826 372.210 C 264.791 372.599,260.251 374.397,259.300 374.399 C 257.824 374.402,259.044 373.188,261.100 372.608 C 262.365 372.251,263.580 371.893,263.800 371.813 C 264.402 371.593,264.864 371.772,264.826 372.210 M290.643 373.075 C 291.386 373.886,292.791 375.738,293.766 377.191 C 294.740 378.643,295.957 380.031,296.469 380.275 C 299.163 381.560,301.231 381.963,306.600 382.253 C 311.639 382.525,313.640 383.403,315.500 386.162 L 316.800 388.090 316.800 394.634 C 316.800 407.632,316.884 407.597,286.367 407.380 L 266.335 407.238 264.537 406.184 C 263.489 405.570,262.250 404.361,261.569 403.287 L 260.400 401.443 260.400 394.906 C 260.400 384.873,262.223 382.400,269.620 382.400 C 272.680 382.400,275.854 381.884,277.295 381.153 C 277.677 380.959,278.316 380.800,278.716 380.800 C 279.558 380.800,281.252 379.053,283.176 376.200 C 286.562 371.179,288.257 370.470,290.643 373.075 M176.192 373.771 C 177.872 374.473,178.035 375.213,176.500 375.168 C 174.847 375.120,171.483 373.877,171.275 373.238 C 171.048 372.540,174.015 372.861,176.192 373.771 M252.729 375.468 C 252.602 376.128,248.497 377.367,247.287 377.112 C 246.169 376.876,246.840 376.224,248.878 375.567 C 251.740 374.643,252.895 374.614,252.729 375.468 M187.293 376.280 C 189.287 376.512,190.579 377.403,189.514 377.812 C 189.197 377.933,188.445 377.845,187.843 377.616 C 187.241 377.387,186.298 377.200,185.748 377.200 C 184.446 377.200,183.107 376.474,183.434 375.945 C 183.575 375.717,184.075 375.649,184.545 375.795 C 185.015 375.940,186.252 376.159,187.293 376.280 M239.924 377.900 C 239.785 378.624,235.301 379.447,234.033 378.982 C 232.565 378.443,235.509 377.402,238.929 377.250 C 239.803 377.211,240.028 377.358,239.924 377.900 M201.500 378.273 C 203.628 378.778,201.502 379.767,199.139 379.371 C 196.351 378.905,196.000 378.768,196.000 378.146 C 196.000 377.516,198.560 377.575,201.500 378.273 M215.000 379.600 C 215.000 380.800,208.895 380.486,208.488 379.265 C 208.362 378.887,209.133 378.795,211.661 378.883 C 214.310 378.976,215.000 379.124,215.000 379.600 M227.600 379.157 C 227.600 379.751,226.467 380.000,223.767 380.000 C 221.752 380.000,221.200 379.871,221.200 379.400 C 221.200 378.917,221.822 378.800,224.400 378.800 C 226.160 378.800,227.600 378.961,227.600 379.157 " stroke="none" fill="#f2f3f4" fill-rule="evenodd"></path><path id="path2" d="M339.747 85.795 C 339.497 86.447,339.708 87.691,341.587 96.600 C 342.283 99.900,343.068 103.050,343.331 103.600 L 343.810 104.600 355.157 104.706 C 367.390 104.821,367.378 104.823,367.796 102.672 C 368.189 100.649,368.829 97.653,369.606 94.200 C 371.354 86.438,371.350 86.463,370.812 85.814 C 370.055 84.902,340.096 84.884,339.747 85.795 M360.322 91.042 C 360.230 92.817,360.052 93.400,359.600 93.400 C 358.792 93.400,358.498 88.834,359.275 88.354 C 360.150 87.813,360.449 88.580,360.322 91.042 M347.600 91.029 C 347.600 93.317,347.509 93.641,346.900 93.526 C 345.633 93.286,345.735 88.400,347.008 88.400 C 347.471 88.400,347.600 88.974,347.600 91.029 M351.800 91.033 C 351.800 92.870,351.666 93.400,351.200 93.400 C 350.572 93.400,350.115 90.118,350.576 88.918 C 351.105 87.540,351.800 88.741,351.800 91.033 M356.328 90.165 C 356.494 92.187,356.126 93.600,355.435 93.600 C 354.498 93.600,354.002 90.703,354.650 89.013 C 355.124 87.778,356.192 88.512,356.328 90.165 M364.400 91.029 C 364.400 93.317,364.309 93.641,363.700 93.526 C 362.433 93.286,362.535 88.400,363.808 88.400 C 364.271 88.400,364.400 88.974,364.400 91.029 M347.600 98.000 C 347.600 100.755,346.898 101.876,346.243 100.167 C 345.915 99.314,345.933 95.800,346.267 95.467 C 347.190 94.544,347.600 95.323,347.600 98.000 M351.918 97.900 C 351.764 101.431,350.671 101.846,350.477 98.448 C 350.334 95.927,350.541 95.200,351.406 95.200 C 351.930 95.200,352.016 95.658,351.918 97.900 M356.000 97.776 C 356.000 100.319,355.457 101.449,354.761 100.351 C 353.933 99.044,354.442 95.200,355.443 95.200 C 355.861 95.200,356.000 95.841,356.000 97.776 M360.304 97.632 C 360.413 99.907,359.994 101.091,359.245 100.628 C 358.766 100.331,358.620 95.913,359.075 95.458 C 359.739 94.794,360.208 95.623,360.304 97.632 M364.642 96.224 C 364.902 97.260,364.642 100.292,364.260 100.673 C 363.649 101.284,363.200 100.056,363.200 97.776 C 363.200 95.040,364.101 94.070,364.642 96.224 M79.774 161.958 C 79.923 162.199,80.416 162.595,80.871 162.838 C 81.462 163.154,81.620 163.156,81.426 162.842 C 81.277 162.601,80.784 162.205,80.329 161.962 C 79.738 161.646,79.580 161.644,79.774 161.958 M50.975 165.300 L 49.800 166.600 51.100 165.425 C 51.815 164.779,52.400 164.194,52.400 164.125 C 52.400 163.816,52.070 164.088,50.975 165.300 M87.800 172.000 C 88.141 172.660,88.511 173.200,88.621 173.200 C 88.731 173.200,88.541 172.660,88.200 172.000 C 87.859 171.340,87.489 170.800,87.379 170.800 C 87.269 170.800,87.459 171.340,87.800 172.000 M45.320 180.000 C 45.320 181.210,45.395 181.705,45.487 181.100 C 45.578 180.495,45.578 179.505,45.487 178.900 C 45.395 178.295,45.320 178.790,45.320 180.000 M89.293 181.200 C 89.293 181.970,89.375 182.285,89.476 181.900 C 89.576 181.515,89.576 180.885,89.476 180.500 C 89.375 180.115,89.293 180.430,89.293 181.200 M85.543 192.500 C 84.896 193.422,84.836 193.635,85.337 193.233 C 86.050 192.660,86.987 191.200,86.641 191.200 C 86.539 191.200,86.044 191.785,85.543 192.500 M320.400 191.420 C 320.070 191.490,319.148 191.653,318.352 191.782 C 315.734 192.207,311.017 197.540,312.462 198.442 C 312.882 198.704,312.803 198.916,312.100 199.411 C 311.162 200.072,310.749 203.200,311.600 203.200 C 311.820 203.200,312.000 203.806,312.000 204.546 C 312.000 205.336,312.372 206.364,312.900 207.036 C 313.395 207.665,314.160 208.700,314.600 209.336 C 316.378 211.906,323.411 213.232,326.406 211.561 C 330.660 209.188,334.318 203.076,332.018 202.183 C 331.478 201.973,331.488 201.878,332.101 201.427 C 333.114 200.680,331.901 195.600,330.709 195.600 C 330.539 195.600,330.400 195.334,330.400 195.009 C 330.400 194.684,329.905 194.112,329.300 193.737 C 328.695 193.363,328.007 192.827,327.771 192.548 C 327.137 191.799,322.189 191.041,320.400 191.420 M50.800 194.925 C 50.800 194.994,51.385 195.579,52.100 196.225 L 53.400 197.400 52.225 196.100 C 51.130 194.888,50.800 194.616,50.800 194.925 M253.200 198.953 C 248.984 200.483,248.713 200.622,246.120 202.572 C 227.147 216.845,235.519 246.042,259.219 248.255 C 268.213 249.095,277.517 244.103,282.890 235.555 C 288.168 227.157,286.392 213.027,279.116 205.541 C 272.660 198.898,261.306 196.012,253.200 198.953 M314.534 199.240 C 314.717 199.377,314.582 199.598,314.234 199.732 C 313.777 199.907,313.600 199.736,313.600 199.121 C 313.600 198.651,313.735 198.430,313.900 198.629 C 314.065 198.828,314.350 199.103,314.534 199.240 M59.776 200.978 C 60.204 201.320,60.834 201.586,61.176 201.568 C 61.715 201.541,61.718 201.507,61.200 201.314 C 60.870 201.192,60.240 200.926,59.800 200.724 C 59.013 200.362,59.012 200.366,59.776 200.978 M323.400 202.000 C 323.264 202.220,322.893 202.400,322.576 202.400 C 322.259 202.400,322.000 202.220,322.000 202.000 C 322.000 201.780,322.371 201.600,322.824 201.600 C 323.277 201.600,323.536 201.780,323.400 202.000 M65.700 202.276 C 66.085 202.376,66.715 202.376,67.100 202.276 C 67.485 202.175,67.170 202.093,66.400 202.093 C 65.630 202.093,65.315 202.175,65.700 202.276 M313.490 206.000 C 313.441 206.644,312.800 207.233,312.800 206.633 C 312.800 206.541,312.691 206.181,312.557 205.833 C 312.400 205.424,312.533 205.200,312.932 205.200 C 313.304 205.200,313.526 205.519,313.490 206.000 M322.000 205.600 C 322.000 205.820,322.259 206.000,322.576 206.000 C 322.893 206.000,323.236 206.135,323.338 206.300 C 323.440 206.465,323.001 206.600,322.362 206.600 C 321.522 206.600,321.200 206.406,321.200 205.900 C 321.200 205.515,321.380 205.200,321.600 205.200 C 321.820 205.200,322.000 205.380,322.000 205.600 M258.506 206.500 C 259.315 207.113,259.433 207.769,259.803 213.704 C 260.128 218.913,259.850 218.490,263.239 218.939 C 265.970 219.301,270.249 220.791,272.122 222.031 L 274.000 223.275 274.000 227.423 C 274.000 230.488,273.802 232.122,273.240 233.685 C 272.822 234.848,272.373 236.700,272.242 237.800 C 271.877 240.858,271.160 241.258,266.200 241.172 C 257.685 241.026,256.929 240.644,255.793 235.913 C 255.163 233.290,253.837 229.935,252.111 226.600 C 251.769 225.940,250.762 224.519,249.872 223.442 L 248.255 221.485 249.172 220.742 C 250.438 219.717,254.000 220.335,254.000 221.580 C 254.000 221.811,254.274 222.000,254.608 222.000 C 255.092 222.000,255.179 221.612,255.036 220.100 C 254.693 216.481,255.501 207.572,256.247 206.749 C 257.039 205.873,257.598 205.811,258.506 206.500 M120.695 248.303 L 91.589 248.405 91.695 261.903 L 91.800 275.400 168.000 275.400 L 244.200 275.400 244.200 261.800 L 244.200 248.200 197.000 248.200 C 171.040 248.200,136.703 248.246,120.695 248.303 M231.002 252.801 C 234.633 254.455,236.590 260.560,234.300 263.090 C 233.500 263.973,233.384 264.800,234.059 264.800 C 234.544 264.800,238.099 267.966,239.328 269.492 C 240.170 270.539,239.904 272.000,238.870 272.000 C 238.178 272.000,233.064 266.993,232.729 265.987 C 232.575 265.526,232.266 265.513,230.925 265.915 C 225.626 267.503,220.800 264.374,220.800 259.351 C 220.800 257.824,222.417 254.538,223.532 253.800 C 226.625 251.753,228.230 251.538,231.002 252.801 M225.213 253.916 C 219.869 256.864,221.524 264.926,227.593 265.509 C 233.819 266.107,236.778 257.982,231.701 254.227 C 230.186 253.107,226.960 252.952,225.213 253.916 M162.435 259.944 C 163.445 261.191,163.404 262.732,162.330 263.874 L 161.461 264.800 131.704 264.800 C 112.187 264.800,101.684 264.659,101.183 264.391 C 99.269 263.367,99.235 260.426,101.125 259.436 C 102.005 258.975,107.244 258.891,131.928 258.940 L 161.671 259.000 162.435 259.944 M353.177 265.179 C 349.090 266.419,349.044 266.604,349.062 281.617 C 349.084 299.819,347.600 298.400,366.618 298.400 L 380.317 298.400 381.559 296.986 L 382.800 295.572 382.800 281.675 C 382.800 266.265,382.834 266.475,380.161 265.358 C 378.680 264.739,355.140 264.583,353.177 265.179 M367.514 269.500 C 368.111 269.885,369.050 270.585,369.600 271.055 C 370.150 271.525,371.738 272.848,373.130 273.994 C 376.274 276.585,377.197 278.045,377.199 280.433 C 377.201 283.055,376.802 283.106,375.789 280.614 C 374.905 278.439,373.825 277.286,370.671 275.148 C 367.911 273.277,368.000 273.028,368.000 282.653 L 368.000 291.306 366.623 292.604 C 361.922 297.038,353.096 292.355,357.370 287.694 L 358.740 286.200 362.370 286.200 L 366.000 286.200 366.000 277.500 C 366.000 272.715,366.096 268.800,366.214 268.800 C 366.332 268.800,366.917 269.115,367.514 269.500 M90.400 298.395 C 71.218 303.513,65.026 327.257,79.317 340.892 C 87.577 348.774,99.383 350.119,109.516 344.332 C 111.556 343.166,117.600 337.498,117.600 336.750 C 117.600 336.549,118.009 335.713,118.510 334.892 C 122.272 328.720,122.548 316.142,119.021 311.600 C 118.764 311.270,118.354 310.550,118.108 310.000 C 114.225 301.306,100.708 295.645,90.400 298.395 M93.800 312.675 C 94.680 313.203,95.672 313.823,96.004 314.055 C 96.467 314.377,97.108 314.139,98.744 313.037 C 101.504 311.180,104.071 311.008,106.967 312.485 C 114.550 316.354,111.267 327.181,99.800 336.127 C 96.841 338.436,96.272 338.446,93.340 336.241 C 86.779 331.309,82.000 324.226,82.000 319.435 C 82.000 313.206,88.487 309.489,93.800 312.675 M285.181 342.174 C 272.798 345.592,274.247 363.707,286.982 364.692 C 298.533 365.586,304.030 348.945,293.898 343.753 C 293.184 343.388,292.510 342.963,292.400 342.809 C 291.685 341.810,287.752 341.464,285.181 342.174 " stroke="none" fill="#f27d5b" fill-rule="evenodd"></path><path id="path3" d="M166.000 65.569 C 158.531 66.020,154.100 68.678,151.279 74.400 L 149.800 77.400 149.947 162.600 C 150.028 209.460,150.184 247.890,150.294 248.000 C 150.403 248.110,150.435 209.770,150.365 162.800 C 150.225 69.320,150.049 77.586,152.270 73.458 C 153.080 71.951,155.599 69.458,157.486 68.293 C 161.041 66.100,158.224 66.200,216.800 66.206 C 246.610 66.209,270.100 66.082,269.000 65.924 C 266.316 65.538,267.046 65.543,220.800 65.567 C 198.470 65.579,178.040 65.522,175.400 65.440 C 172.760 65.359,168.530 65.417,166.000 65.569 M278.579 70.527 C 279.749 71.696,281.079 73.362,281.535 74.227 C 281.991 75.092,282.373 75.600,282.382 75.356 C 282.423 74.331,278.644 69.595,277.126 68.767 C 276.755 68.565,277.409 69.357,278.579 70.527 M347.012 70.900 C 346.475 72.055,345.653 73.990,345.186 75.200 C 344.078 78.072,343.268 79.939,342.529 81.321 C 341.782 82.719,342.088 83.600,343.319 83.600 C 344.077 83.600,344.442 83.185,345.168 81.500 C 345.666 80.345,346.394 78.680,346.787 77.800 C 349.949 70.715,350.192 69.930,349.399 69.350 C 348.255 68.513,348.066 68.635,347.012 70.900 M361.460 69.307 C 360.752 69.824,360.986 70.793,362.838 75.000 C 363.032 75.440,363.893 77.510,364.752 79.600 C 366.112 82.910,366.448 83.416,367.356 83.527 C 368.451 83.659,368.919 81.899,368.034 80.980 C 367.833 80.771,366.956 78.800,366.087 76.600 C 363.038 68.886,362.720 68.385,361.460 69.307 M282.413 76.620 C 282.406 76.851,282.624 77.264,282.898 77.538 C 283.483 78.123,283.647 136.724,283.065 137.083 C 282.258 137.582,273.115 137.443,272.917 136.928 C 272.758 136.513,272.561 136.522,271.917 136.973 C 271.332 137.383,270.290 137.483,268.058 137.344 C 261.809 136.954,259.680 135.912,257.007 131.939 C 252.107 124.654,250.551 124.865,245.185 133.542 C 243.347 136.515,240.227 137.225,228.400 137.362 C 218.924 137.472,218.206 137.592,215.751 139.464 C 212.605 141.864,212.800 139.074,212.800 181.749 C 212.800 219.547,212.804 219.757,213.641 221.485 C 215.612 225.557,218.012 226.386,227.843 226.394 L 235.485 226.400 235.720 222.300 C 236.085 215.944,238.204 210.485,241.901 206.373 C 257.306 189.238,286.000 199.826,286.000 222.645 L 286.000 226.000 310.592 226.000 C 337.492 226.000,337.106 226.031,339.750 223.640 C 342.537 221.121,342.381 223.593,342.391 181.594 C 342.401 139.651,342.558 142.244,339.865 139.927 C 337.315 137.735,338.736 137.839,310.497 137.780 C 296.140 137.751,284.263 137.597,284.105 137.438 C 283.947 137.280,283.796 124.337,283.769 108.675 C 283.743 93.014,283.694 79.649,283.661 78.976 C 283.605 77.854,282.442 75.658,282.413 76.620 M338.145 81.800 C 337.791 82.722,338.288 83.600,339.164 83.600 C 340.154 83.600,340.525 83.025,340.199 81.996 C 339.903 81.064,338.479 80.928,338.145 81.800 M346.548 81.792 C 345.877 83.540,346.303 83.622,355.490 83.508 L 364.200 83.400 364.200 82.400 L 364.200 81.400 355.490 81.292 C 348.001 81.199,346.748 81.269,346.548 81.792 M370.555 81.772 C 370.157 82.810,370.715 83.668,371.698 83.528 C 372.359 83.434,372.600 83.133,372.600 82.400 C 372.600 81.219,370.961 80.716,370.555 81.772 M160.643 100.633 C 160.509 100.981,160.438 134.326,160.484 174.733 L 160.569 248.200 160.816 174.600 C 160.952 134.120,161.094 100.948,161.132 100.884 C 161.169 100.820,177.175 100.756,196.700 100.743 C 216.225 100.729,241.101 100.631,251.979 100.523 C 270.839 100.337,271.785 100.362,272.333 101.064 C 272.887 101.774,272.899 101.774,272.654 101.067 C 272.514 100.664,272.400 100.259,272.400 100.167 C 272.400 99.573,160.871 100.038,160.643 100.633 M64.400 148.305 C 62.209 148.433,57.144 149.570,56.620 150.051 C 56.411 150.243,55.961 150.405,55.620 150.412 C 53.068 150.459,44.572 157.182,41.231 161.799 C 32.578 173.756,33.952 191.609,44.367 202.545 C 55.452 214.184,74.717 215.635,87.031 205.758 C 106.112 190.453,103.024 161.536,81.200 151.152 C 80.210 150.681,79.119 150.159,78.776 149.992 C 76.578 148.922,69.022 148.035,64.400 148.305 M73.557 150.792 C 77.779 151.592,83.480 154.391,86.400 157.096 C 87.170 157.809,87.915 158.395,88.055 158.397 C 88.781 158.406,93.003 164.324,94.367 167.244 C 105.073 190.161,84.501 215.393,60.164 209.194 C 30.935 201.749,29.977 161.185,58.800 151.437 C 61.932 150.378,69.604 150.042,73.557 150.792 M327.917 153.715 C 328.843 154.658,329.600 155.525,329.600 155.640 C 329.600 156.521,311.455 173.950,310.868 173.632 C 309.978 173.150,302.400 165.361,302.400 164.928 C 302.400 164.527,305.769 161.200,306.174 161.200 C 306.327 161.200,307.442 162.190,308.652 163.400 C 311.519 166.267,310.820 166.590,318.600 158.800 C 326.287 151.103,325.679 151.435,327.917 153.715 M66.300 158.282 C 66.795 158.378,67.605 158.378,68.100 158.282 C 68.595 158.187,68.190 158.109,67.200 158.109 C 66.210 158.109,65.805 158.187,66.300 158.282 M74.433 159.349 C 74.845 159.717,77.200 160.800,77.200 160.621 C 77.200 160.390,74.982 159.200,74.553 159.200 C 74.396 159.200,74.342 159.267,74.433 159.349 M285.018 162.182 C 286.289 163.453,286.302 165.177,285.049 166.354 L 284.097 167.248 253.957 167.255 L 223.817 167.261 223.109 166.386 C 222.028 165.052,222.188 163.024,223.454 162.029 C 224.499 161.207,224.766 161.200,254.272 161.200 L 284.036 161.200 285.018 162.182 M62.787 162.770 C 60.496 163.382,58.000 164.574,58.000 165.056 C 58.000 165.147,58.575 164.923,59.278 164.560 C 62.496 162.895,67.806 161.984,70.337 162.662 C 71.190 162.890,71.255 163.078,71.066 164.756 L 70.857 166.600 71.297 164.845 C 72.034 161.903,68.897 161.138,62.787 162.770 M55.152 167.083 C 54.045 168.119,52.961 169.334,52.744 169.783 C 52.526 170.232,52.931 169.970,53.643 169.200 C 54.355 168.430,55.581 167.222,56.369 166.517 C 57.156 165.811,57.657 165.226,57.483 165.217 C 57.308 165.207,56.260 166.047,55.152 167.083 M83.966 165.900 C 84.183 166.285,84.834 167.140,85.412 167.800 C 86.208 168.708,86.148 168.538,85.164 167.100 C 83.880 165.222,83.202 164.544,83.966 165.900 M69.600 169.933 C 69.600 170.243,68.685 170.400,66.878 170.400 C 62.515 170.400,58.924 173.215,57.836 177.488 L 57.350 179.400 53.701 179.515 L 50.053 179.629 49.890 178.315 C 49.730 177.014,49.727 177.016,49.664 178.514 L 49.600 180.028 53.683 179.914 L 57.766 179.800 58.088 178.245 C 58.994 173.873,62.191 171.100,66.594 170.867 C 69.285 170.725,70.456 170.323,69.873 169.740 C 69.723 169.590,69.600 169.677,69.600 169.933 M50.986 172.900 C 50.448 174.055,50.022 175.450,50.038 176.000 L 50.069 177.000 50.386 176.000 C 50.561 175.450,51.083 174.055,51.546 172.900 C 52.009 171.745,52.293 170.800,52.176 170.800 C 52.059 170.800,51.523 171.745,50.986 172.900 M82.480 180.480 C 82.216 180.744,82.000 181.342,82.000 181.809 C 82.000 187.635,75.401 193.973,68.400 194.872 C 67.584 194.976,67.400 195.221,67.400 196.200 C 67.400 199.782,77.781 195.651,81.444 190.610 C 85.197 185.447,86.072 176.888,82.480 180.480 M326.928 189.771 C 335.404 192.950,337.506 204.870,330.684 211.070 C 327.424 214.033,326.651 214.187,314.295 214.318 L 303.189 214.436 300.622 213.211 C 289.930 208.108,291.162 192.538,302.506 189.402 C 305.784 188.495,324.273 188.775,326.928 189.771 M319.000 190.957 C 310.810 193.534,308.142 202.823,313.788 209.103 C 319.130 215.043,328.630 213.815,332.162 206.726 C 336.439 198.143,328.062 188.106,319.000 190.957 M324.771 191.623 C 326.184 191.853,327.534 192.269,327.771 192.548 C 328.007 192.827,328.695 193.363,329.300 193.737 C 329.905 194.112,330.400 194.684,330.400 195.009 C 330.400 195.334,330.539 195.600,330.709 195.600 C 331.901 195.600,333.114 200.680,332.101 201.427 C 331.488 201.878,331.478 201.973,332.018 202.183 C 334.318 203.076,330.660 209.188,326.406 211.561 C 323.411 213.232,316.378 211.906,314.600 209.336 C 314.160 208.700,313.395 207.665,312.900 207.036 C 312.372 206.364,312.000 205.336,312.000 204.546 C 312.000 203.806,311.820 203.200,311.600 203.200 C 310.749 203.200,311.162 200.072,312.100 199.411 C 312.803 198.916,312.882 198.704,312.462 198.442 C 311.017 197.540,315.734 192.207,318.352 191.782 C 319.148 191.653,320.070 191.490,320.400 191.420 C 321.546 191.177,322.214 191.208,324.771 191.623 M313.600 199.121 C 313.600 199.736,313.777 199.907,314.234 199.732 C 314.582 199.598,314.717 199.377,314.534 199.240 C 314.350 199.103,314.065 198.828,313.900 198.629 C 313.735 198.430,313.600 198.651,313.600 199.121 M322.000 202.000 C 322.000 202.220,322.259 202.400,322.576 202.400 C 322.893 202.400,323.264 202.220,323.400 202.000 C 323.536 201.780,323.277 201.600,322.824 201.600 C 322.371 201.600,322.000 201.780,322.000 202.000 M312.557 205.833 C 312.691 206.181,312.800 206.541,312.800 206.633 C 312.800 207.233,313.441 206.644,313.490 206.000 C 313.526 205.519,313.304 205.200,312.932 205.200 C 312.533 205.200,312.400 205.424,312.557 205.833 M321.200 205.900 C 321.200 206.406,321.522 206.600,322.362 206.600 C 323.001 206.600,323.440 206.465,323.338 206.300 C 323.236 206.135,322.893 206.000,322.576 206.000 C 322.259 206.000,322.000 205.820,322.000 205.600 C 322.000 205.380,321.820 205.200,321.600 205.200 C 321.380 205.200,321.200 205.515,321.200 205.900 M283.408 274.405 C 283.446 296.187,283.574 314.107,283.693 314.227 C 283.813 314.346,283.892 296.524,283.869 274.622 C 283.847 252.720,283.719 234.800,283.584 234.800 C 283.450 234.800,283.371 252.622,283.408 274.405 M43.600 247.000 C 43.600 247.412,43.862 247.608,44.300 247.524 C 45.143 247.361,45.090 246.652,44.221 246.471 C 43.859 246.395,43.600 246.616,43.600 247.000 M36.200 254.652 C 34.161 256.892,33.968 257.181,35.173 256.196 C 37.092 254.626,38.744 252.767,38.149 252.847 C 37.957 252.873,37.080 253.685,36.200 254.652 M150.187 298.600 C 150.187 311.360,150.238 316.638,150.300 310.329 C 150.362 304.019,150.362 293.579,150.300 287.129 C 150.238 280.678,150.187 285.840,150.187 298.600 M160.319 282.197 L 160.437 288.794 161.445 289.047 C 163.851 289.651,272.526 288.628,272.697 288.000 C 272.805 287.604,272.749 287.554,272.530 287.854 C 272.287 288.188,257.482 288.347,216.600 288.454 L 161.000 288.600 160.890 282.100 C 160.830 278.525,160.650 275.600,160.490 275.599 C 160.331 275.599,160.253 278.568,160.319 282.197 M214.538 299.397 C 214.792 299.945,215.135 300.395,215.300 300.397 C 215.741 300.401,215.665 299.688,215.193 299.396 C 214.970 299.258,214.891 298.977,215.017 298.772 C 215.144 298.568,214.984 298.400,214.661 298.400 C 214.180 298.400,214.158 298.578,214.538 299.397 M212.413 299.657 C 212.406 300.019,212.685 300.424,213.033 300.557 C 213.965 300.915,214.400 300.854,214.400 300.367 C 214.400 300.128,214.175 300.009,213.900 300.102 C 213.625 300.194,213.181 299.984,212.913 299.635 C 212.470 299.058,212.424 299.060,212.413 299.657 M210.942 301.800 C 210.909 302.372,211.102 302.800,211.392 302.800 C 211.672 302.800,211.900 302.350,211.900 301.800 C 211.900 300.495,211.018 300.496,210.942 301.800 M214.800 301.800 C 214.800 302.130,214.980 302.400,215.200 302.400 C 215.420 302.400,215.600 302.130,215.600 301.800 C 215.600 301.470,215.420 301.200,215.200 301.200 C 214.980 301.200,214.800 301.470,214.800 301.800 M212.800 302.400 C 212.800 302.620,213.070 302.800,213.400 302.800 C 213.730 302.800,214.000 302.620,214.000 302.400 C 214.000 302.180,213.730 302.000,213.400 302.000 C 213.070 302.000,212.800 302.180,212.800 302.400 M211.600 304.200 C 211.600 304.530,211.780 304.800,212.000 304.800 C 212.220 304.800,212.400 304.530,212.400 304.200 C 212.400 303.870,212.220 303.600,212.000 303.600 C 211.780 303.600,211.600 303.870,211.600 304.200 M213.478 303.856 C 213.158 304.175,213.519 304.800,214.024 304.800 C 214.231 304.800,214.400 304.530,214.400 304.200 C 214.400 303.581,213.928 303.405,213.478 303.856 M210.265 305.674 C 210.132 306.183,210.004 306.685,209.981 306.790 C 209.959 306.895,210.162 307.054,210.434 307.145 C 210.744 307.248,210.838 307.075,210.686 306.680 C 210.554 306.335,210.660 305.973,210.922 305.876 C 211.275 305.746,211.283 305.575,210.954 305.224 C 210.615 304.862,210.449 304.970,210.265 305.674 M214.800 305.400 C 214.800 305.767,214.994 306.002,215.230 305.923 C 215.466 305.845,215.660 305.609,215.660 305.400 C 215.660 305.191,215.466 304.955,215.230 304.877 C 214.994 304.798,214.800 305.033,214.800 305.400 M212.400 306.167 C 212.400 306.478,212.188 306.804,211.929 306.890 C 211.660 306.980,211.592 307.264,211.771 307.553 C 211.994 307.914,212.244 307.751,212.642 306.984 C 213.307 305.702,213.319 305.600,212.800 305.600 C 212.580 305.600,212.400 305.855,212.400 306.167 M213.478 307.056 C 213.158 307.375,213.519 308.000,214.024 308.000 C 214.231 308.000,214.400 307.730,214.400 307.400 C 214.400 306.781,213.928 306.605,213.478 307.056 M215.417 307.172 C 215.144 307.614,215.775 308.092,216.144 307.722 C 216.525 307.342,216.454 306.800,216.024 306.800 C 215.817 306.800,215.544 306.968,215.417 307.172 M214.496 309.595 C 213.858 310.617,213.871 310.800,214.587 310.800 C 214.945 310.800,215.085 310.565,214.945 310.200 C 214.818 309.870,214.914 309.600,215.157 309.600 C 215.401 309.600,215.600 309.420,215.600 309.200 C 215.600 308.541,215.026 308.746,214.496 309.595 M212.800 311.600 C 212.800 311.820,213.070 312.000,213.400 312.000 C 213.730 312.000,214.000 311.820,214.000 311.600 C 214.000 311.380,213.730 311.200,213.400 311.200 C 213.070 311.200,212.800 311.380,212.800 311.600 M214.800 312.200 C 214.800 312.530,214.980 312.800,215.200 312.800 C 215.420 312.800,215.600 312.530,215.600 312.200 C 215.600 311.870,215.420 311.600,215.200 311.600 C 214.980 311.600,214.800 311.870,214.800 312.200 M283.734 317.600 C 283.734 319.250,283.805 319.925,283.891 319.100 C 283.978 318.275,283.978 316.925,283.891 316.100 C 283.805 315.275,283.734 315.950,283.734 317.600 M150.572 324.200 C 150.729 324.860,151.029 325.576,151.239 325.791 C 151.450 326.006,151.410 325.556,151.151 324.791 C 150.546 323.000,150.205 322.652,150.572 324.200 M281.292 327.029 C 280.797 327.783,280.472 328.400,280.569 328.400 C 280.847 328.400,282.504 325.971,282.339 325.806 C 282.257 325.724,281.786 326.274,281.292 327.029 M279.549 329.466 C 279.247 329.833,278.129 330.823,277.064 331.666 C 275.999 332.510,275.251 333.200,275.401 333.200 C 275.850 333.200,279.478 330.256,279.960 329.500 C 280.527 328.612,280.270 328.591,279.549 329.466 M157.089 332.430 C 157.578 332.939,158.078 333.255,158.201 333.132 C 158.324 333.009,157.924 332.592,157.312 332.206 L 156.200 331.504 157.089 332.430 M272.460 334.100 C 272.065 334.495,260.422 334.600,216.935 334.600 C 186.672 334.600,162.742 334.739,163.759 334.910 C 167.995 335.620,271.701 335.056,273.000 334.316 C 273.676 333.931,273.929 333.625,273.580 333.616 C 273.239 333.607,272.735 333.825,272.460 334.100 M148.700 349.232 C 148.315 349.456,148.000 349.824,148.000 350.048 C 148.000 350.273,148.284 350.173,148.631 349.826 C 149.329 349.128,273.699 349.031,275.400 349.728 C 275.840 349.908,275.750 349.779,275.200 349.442 C 273.974 348.690,149.984 348.484,148.700 349.232 M276.012 351.220 C 275.987 353.303,279.324 353.200,211.921 353.200 L 148.802 353.200 148.239 351.900 L 147.676 350.600 147.888 352.200 C 148.294 355.258,142.123 354.992,212.711 354.996 L 276.200 355.000 276.451 353.200 C 276.588 352.210,276.549 351.130,276.363 350.800 C 276.109 350.350,276.021 350.455,276.012 351.220 M302.900 351.115 L 299.200 351.230 299.200 352.955 L 299.200 354.680 305.700 354.910 C 317.148 355.317,343.113 354.970,343.797 354.402 C 344.625 353.715,344.555 352.111,343.677 351.641 C 342.988 351.272,311.081 350.861,302.900 351.115 M269.289 393.023 C 268.800 393.365,268.400 394.020,268.400 394.479 C 268.400 396.290,269.020 396.374,282.491 396.387 L 295.182 396.400 295.800 395.456 C 296.556 394.303,296.215 393.262,294.919 392.769 C 293.105 392.079,270.314 392.305,269.289 393.023 M301.100 392.832 C 300.296 393.300,300.161 395.201,300.880 395.920 C 301.179 396.219,302.658 396.400,304.800 396.400 C 308.560 396.400,309.200 396.100,309.200 394.334 C 309.200 392.554,303.419 391.482,301.100 392.832 " stroke="none" fill="#51c1cc" fill-rule="evenodd"></path><path id="path4" d="M164.200 1.862 C 147.417 5.407,135.611 13.781,130.332 25.887 C 129.030 28.873,128.982 28.896,126.942 27.519 C 119.459 22.469,110.862 22.397,102.584 27.315 C 99.950 28.880,95.200 34.038,95.200 35.334 C 95.200 35.485,94.852 36.372,94.426 37.304 C 93.224 39.938,92.805 41.951,92.802 45.100 C 92.801 47.287,92.665 48.000,92.252 48.000 C 91.951 48.000,90.286 48.739,88.552 49.643 C 64.674 62.091,65.083 97.778,89.239 109.681 C 97.035 113.523,95.412 113.341,124.186 113.586 L 149.372 113.800 149.405 180.685 C 149.423 217.472,149.585 247.712,149.766 247.885 C 149.947 248.058,150.028 209.770,149.947 162.800 L 149.800 77.400 151.279 74.400 C 153.055 70.798,156.249 67.931,160.125 66.462 L 162.600 65.524 205.600 65.662 C 229.250 65.738,251.390 65.751,254.800 65.692 C 258.210 65.633,262.530 65.575,264.400 65.565 L 267.800 65.546 265.000 65.001 C 263.460 64.702,261.577 64.266,260.816 64.032 C 259.325 63.575,258.086 64.111,259.136 64.760 C 260.380 65.529,253.608 65.878,247.900 65.339 C 245.407 65.104,245.200 65.012,245.200 64.146 C 245.200 62.677,243.253 58.157,240.844 54.031 C 235.314 44.560,225.756 37.581,215.721 35.688 C 212.648 35.108,212.414 34.992,211.986 33.835 C 206.453 18.879,198.449 9.975,185.805 4.708 C 180.739 2.598,168.407 0.973,164.200 1.862 M246.823 60.973 C 246.044 61.912,251.574 63.558,252.852 62.768 C 253.422 62.416,251.974 61.726,249.800 61.315 C 249.140 61.190,248.304 60.936,247.942 60.752 C 247.516 60.535,247.121 60.613,246.823 60.973 M268.033 65.744 C 268.125 65.823,269.100 65.991,270.200 66.118 C 271.487 66.267,271.915 66.226,271.400 66.003 C 270.636 65.672,267.686 65.445,268.033 65.744 M274.000 67.071 C 274.770 67.405,275.625 67.862,275.900 68.088 C 276.235 68.362,276.400 68.364,276.400 68.092 C 276.400 67.869,275.676 67.397,274.792 67.043 C 272.767 66.233,272.117 66.256,274.000 67.071 M346.920 69.900 C 346.464 70.725,345.960 71.850,345.799 72.400 C 345.638 72.950,345.077 74.350,344.553 75.512 C 344.029 76.673,343.600 77.720,343.600 77.837 C 343.600 77.954,343.121 79.029,342.535 80.224 C 341.638 82.057,341.543 82.556,341.927 83.399 C 342.757 85.221,344.397 84.500,345.564 81.800 C 346.892 78.728,347.578 76.766,347.257 76.965 C 347.063 77.085,346.685 77.772,346.417 78.491 C 344.912 82.531,344.264 83.600,343.319 83.600 C 342.088 83.600,341.782 82.719,342.529 81.321 C 343.268 79.939,344.078 78.072,345.186 75.200 C 347.603 68.935,348.190 68.190,349.600 69.600 C 350.040 70.040,350.400 70.195,350.400 69.944 C 350.400 69.353,349.177 68.429,348.374 68.413 C 348.029 68.406,347.375 69.075,346.920 69.900 M361.100 68.957 C 360.715 69.249,360.400 69.670,360.400 69.893 C 360.400 70.523,362.045 74.088,362.243 73.890 C 362.341 73.793,362.045 72.838,361.586 71.768 C 360.797 69.927,360.790 69.797,361.453 69.312 C 362.721 68.385,363.034 68.877,366.087 76.600 C 366.956 78.800,367.833 80.771,368.034 80.980 C 368.923 81.903,368.450 83.659,367.348 83.527 C 366.422 83.415,366.097 82.912,364.623 79.308 C 362.940 75.194,362.137 73.700,362.760 75.846 C 364.086 80.406,366.113 84.000,367.360 84.000 C 369.192 84.000,369.435 83.015,368.218 80.530 C 367.613 79.295,366.764 77.204,366.331 75.885 C 365.898 74.565,365.305 73.106,365.013 72.643 C 364.722 72.179,364.353 71.350,364.194 70.800 C 363.585 68.690,362.389 67.978,361.100 68.957 M279.174 70.600 C 281.534 73.298,281.880 73.618,280.901 72.200 C 280.446 71.540,279.477 70.460,278.748 69.800 C 277.770 68.913,277.881 69.122,279.174 70.600 M348.686 73.222 C 348.090 74.604,347.689 75.822,347.795 75.928 C 348.076 76.209,350.091 71.672,349.917 71.150 C 349.836 70.908,349.282 71.840,348.686 73.222 M282.981 72.830 C 282.838 73.063,282.783 73.302,282.860 73.362 C 283.546 73.897,287.860 76.000,288.271 76.000 C 289.343 76.000,288.757 74.792,287.400 74.205 C 286.630 73.872,285.380 73.332,284.621 73.004 C 283.685 72.599,283.159 72.543,282.981 72.830 M282.425 75.620 C 282.411 75.961,282.607 76.447,282.860 76.700 C 283.112 76.952,283.452 77.843,283.614 78.680 L 283.908 80.200 283.954 78.724 C 283.979 77.912,283.807 77.128,283.572 76.983 C 283.337 76.837,282.988 76.332,282.797 75.859 C 282.574 75.305,282.442 75.220,282.425 75.620 M294.000 78.743 C 294.000 79.220,298.576 82.000,299.360 82.000 C 300.940 82.000,299.342 80.450,296.340 79.071 C 294.720 78.327,294.000 78.226,294.000 78.743 M337.886 81.048 C 337.088 81.845,337.607 83.987,338.662 84.251 C 339.945 84.573,340.896 83.532,340.717 82.000 C 340.600 80.998,338.606 80.327,337.886 81.048 M346.418 81.378 C 346.154 81.696,345.997 82.371,346.069 82.878 C 346.255 84.186,363.846 85.078,364.268 83.800 C 364.354 83.541,361.255 83.400,355.500 83.400 L 346.600 83.400 346.600 82.400 L 346.600 81.400 355.500 81.400 C 360.395 81.400,364.400 81.265,364.400 81.100 C 364.400 80.481,346.939 80.751,346.418 81.378 M370.200 81.600 C 369.753 83.009,370.338 84.000,371.619 84.000 C 372.962 84.000,373.665 82.443,372.796 81.395 C 372.071 80.521,370.503 80.645,370.200 81.600 M340.199 81.996 C 340.525 83.025,340.154 83.600,339.164 83.600 C 338.288 83.600,337.791 82.722,338.145 81.800 C 338.479 80.928,339.903 81.064,340.199 81.996 M372.600 82.400 C 372.600 83.133,372.359 83.434,371.698 83.528 C 370.715 83.668,370.157 82.810,370.555 81.772 C 370.961 80.716,372.600 81.219,372.600 82.400 M304.812 85.300 C 304.824 85.840,309.234 89.200,309.930 89.200 C 311.153 89.200,310.568 88.228,308.373 86.611 C 305.892 84.786,304.790 84.380,304.812 85.300 M283.724 90.200 C 283.726 91.520,283.801 92.012,283.890 91.293 C 283.979 90.574,283.977 89.494,283.886 88.893 C 283.795 88.292,283.722 88.880,283.724 90.200 M315.200 92.941 C 315.200 93.428,319.599 97.200,320.166 97.200 C 321.065 97.200,320.000 95.519,318.201 94.100 C 315.949 92.323,315.200 92.034,315.200 92.941 M236.302 100.632 C 236.170 100.763,219.239 100.849,198.677 100.823 L 161.293 100.774 161.022 113.287 C 160.874 120.169,160.808 153.340,160.877 187.000 L 161.003 248.200 161.101 181.000 L 161.200 113.800 184.686 113.912 C 205.531 114.012,209.466 113.910,215.800 113.102 C 216.583 113.002,216.602 113.263,216.706 125.341 L 216.812 137.682 215.227 139.220 C 211.935 142.415,212.200 138.745,212.200 181.200 C 212.200 223.361,212.064 221.131,214.811 224.012 L 216.800 226.097 216.800 237.043 L 216.800 247.989 230.500 248.095 L 244.200 248.200 244.200 261.800 L 244.200 275.400 230.400 275.505 L 216.600 275.609 216.719 282.005 L 216.838 288.400 189.019 288.400 L 161.200 288.400 161.111 282.100 L 161.022 275.800 160.900 281.969 C 160.830 285.511,160.940 288.300,161.158 288.518 C 161.398 288.758,182.068 288.788,216.969 288.599 L 272.400 288.300 272.400 267.374 C 272.400 244.498,272.548 245.640,269.729 246.745 C 255.517 252.316,235.993 240.887,236.000 227.001 C 236.001 226.223,235.780 226.204,228.300 226.324 C 219.855 226.460,218.408 226.225,215.931 224.315 C 212.586 221.735,212.800 224.647,212.800 181.749 C 212.800 139.074,212.605 141.864,215.751 139.464 C 218.206 137.592,218.924 137.472,228.400 137.362 C 240.227 137.225,243.347 136.515,245.185 133.542 C 250.551 124.865,252.107 124.654,257.007 131.939 C 259.681 135.914,261.808 136.954,268.067 137.344 C 272.830 137.642,272.426 139.428,272.305 118.600 L 272.200 100.600 254.371 100.496 C 244.565 100.439,236.434 100.500,236.302 100.632 M324.800 101.053 C 324.800 101.667,328.668 105.600,329.273 105.600 C 330.278 105.600,329.719 104.531,327.715 102.622 C 325.239 100.263,324.800 100.027,324.800 101.053 M283.701 108.600 C 283.705 109.480,283.787 109.793,283.883 109.295 C 283.979 108.798,283.975 108.078,283.875 107.695 C 283.775 107.313,283.696 107.720,283.701 108.600 M333.615 110.100 C 333.634 110.760,337.848 115.219,338.159 114.908 C 338.691 114.376,338.316 113.644,336.499 111.668 C 334.652 109.659,333.585 109.079,333.615 110.100 M283.693 112.000 C 283.693 112.770,283.775 113.085,283.876 112.700 C 283.976 112.315,283.976 111.685,283.876 111.300 C 283.775 110.915,283.693 111.230,283.693 112.000 M90.635 118.300 C 88.762 120.655,88.390 121.600,89.336 121.600 C 90.033 121.600,93.698 116.883,93.389 116.383 C 92.946 115.665,92.465 116.000,90.635 118.300 M342.000 119.764 C 342.000 120.342,344.809 124.111,345.608 124.605 C 347.145 125.555,346.254 123.308,344.091 120.781 C 342.682 119.135,342.000 118.803,342.000 119.764 M283.734 126.800 C 283.734 128.450,283.805 129.125,283.891 128.300 C 283.978 127.475,283.978 126.125,283.891 125.300 C 283.805 124.475,283.734 125.150,283.734 126.800 M84.500 126.504 C 81.680 130.083,80.839 132.022,82.124 131.987 C 82.608 131.973,85.600 127.538,85.600 126.833 C 85.600 126.184,84.914 125.979,84.500 126.504 M349.426 129.958 C 349.241 130.257,351.344 133.763,352.417 134.945 C 353.426 136.056,353.531 134.549,352.562 132.865 C 350.857 129.901,349.969 129.079,349.426 129.958 M176.587 131.220 C 176.444 131.452,180.750 136.065,186.155 141.472 C 191.560 146.880,195.914 151.416,195.830 151.552 C 195.745 151.688,192.824 151.778,189.338 151.752 C 183.217 151.705,181.181 152.034,182.481 152.859 C 183.246 153.344,197.105 153.279,198.026 152.786 C 199.077 152.224,199.240 137.055,198.200 136.655 C 197.681 136.456,197.600 137.366,197.600 143.413 C 197.600 147.256,197.455 150.400,197.279 150.400 C 197.102 150.400,192.533 145.990,187.125 140.600 C 176.971 130.478,177.019 130.522,176.587 131.220 M117.116 131.497 C 118.499 131.575,120.659 131.574,121.916 131.495 C 123.172 131.416,122.040 131.352,119.400 131.353 C 116.760 131.353,115.732 131.418,117.116 131.497 M126.085 131.900 C 126.177 132.345,126.515 132.550,127.015 132.462 C 128.014 132.286,128.142 132.153,127.816 131.627 C 127.360 130.888,125.924 131.115,126.085 131.900 M118.482 140.082 C 114.485 144.079,111.307 147.440,111.419 147.552 C 111.618 147.751,113.363 146.148,116.320 143.049 C 119.990 139.204,124.925 134.400,125.206 134.400 C 125.536 134.400,126.109 133.176,125.884 132.951 C 125.810 132.877,122.479 136.086,118.482 140.082 M127.754 138.000 C 127.754 140.750,127.818 141.875,127.896 140.500 C 127.974 139.125,127.974 136.875,127.896 135.500 C 127.818 134.125,127.754 135.250,127.754 138.000 M284.032 136.900 C 283.993 137.753,280.938 137.660,311.600 137.741 C 325.350 137.777,336.825 137.951,337.100 138.127 C 337.375 138.303,337.600 138.278,337.600 138.070 C 337.600 137.288,335.150 137.211,310.133 137.205 C 289.978 137.201,284.423 137.093,284.265 136.700 C 284.144 136.401,284.050 136.482,284.032 136.900 M76.257 139.560 C 74.666 142.138,74.489 142.800,75.393 142.800 C 75.720 142.800,76.436 141.913,76.986 140.828 C 77.535 139.744,78.168 138.743,78.392 138.605 C 78.990 138.236,78.890 137.200,78.257 137.200 C 77.958 137.200,77.058 138.262,76.257 139.560 M339.269 139.500 C 340.001 140.105,340.651 140.709,340.714 140.843 C 341.096 141.655,341.976 142.525,341.987 142.101 C 342.006 141.382,339.215 138.400,338.523 138.400 C 338.192 138.400,338.515 138.876,339.269 139.500 M356.000 140.940 C 356.000 141.663,358.829 146.400,359.260 146.400 C 359.847 146.400,359.638 145.558,358.401 142.939 C 357.308 140.626,356.000 139.537,356.000 140.940 M342.319 180.720 C 342.447 221.438,342.489 220.560,340.324 223.025 C 337.799 225.901,339.024 225.776,311.000 226.013 L 285.800 226.226 311.400 226.213 C 339.836 226.199,337.440 226.414,340.430 223.600 C 343.096 221.091,343.003 222.637,342.971 181.091 C 342.953 158.638,342.793 143.433,342.571 143.211 C 342.343 142.983,342.246 157.464,342.319 180.720 M59.800 148.528 C 56.459 149.482,54.474 150.365,55.620 150.388 C 55.961 150.395,56.411 150.245,56.620 150.055 C 58.076 148.734,68.084 147.838,73.286 148.564 C 74.707 148.762,74.832 148.732,74.019 148.385 C 71.842 147.456,63.251 147.542,59.800 148.528 M108.760 149.900 C 106.411 152.411,106.092 153.135,108.314 150.912 C 110.160 149.064,110.680 148.400,110.281 148.400 C 110.216 148.400,109.531 149.075,108.760 149.900 M76.400 149.250 C 79.952 150.209,85.326 153.044,87.953 155.345 C 90.162 157.280,92.336 159.629,93.647 161.500 C 94.933 163.335,95.516 163.754,94.760 162.300 C 93.536 159.948,86.911 153.200,85.826 153.200 C 85.672 153.200,84.973 152.762,84.271 152.227 C 82.691 151.022,77.196 148.787,75.933 148.836 C 75.232 148.863,75.349 148.966,76.400 149.250 M61.600 150.674 C 60.240 150.898,56.687 152.089,56.227 152.474 C 55.797 152.834,58.140 152.208,58.839 151.776 C 59.095 151.617,60.766 151.261,62.552 150.984 C 64.443 150.690,65.131 150.485,64.200 150.494 C 63.320 150.502,62.150 150.583,61.600 150.674 M72.600 150.980 C 74.140 151.287,76.193 151.824,77.162 152.173 C 78.132 152.523,78.998 152.735,79.088 152.645 C 79.411 152.323,74.153 150.825,72.000 150.626 C 69.918 150.433,69.950 150.452,72.600 150.980 M51.700 151.704 C 50.765 152.173,50.000 152.706,50.000 152.887 C 50.000 153.192,52.212 152.168,53.600 151.222 C 54.632 150.518,53.478 150.810,51.700 151.704 M361.852 151.917 C 361.482 152.514,363.618 157.600,364.239 157.600 C 364.960 157.600,364.946 156.972,364.176 154.712 C 363.529 152.813,362.249 151.274,361.852 151.917 M318.600 158.800 C 310.820 166.590,311.519 166.267,308.652 163.400 C 306.256 161.003,305.967 160.876,305.152 161.858 C 304.665 162.445,304.708 162.483,305.549 162.216 C 306.345 161.964,306.859 162.279,308.833 164.233 L 311.173 166.548 312.078 165.774 C 312.576 165.348,315.806 162.147,319.256 158.660 C 323.940 153.927,325.678 152.407,326.115 152.660 C 326.833 153.077,328.800 155.398,328.800 155.828 C 328.800 156.299,311.867 173.200,311.395 173.200 C 311.170 173.200,309.138 171.346,306.881 169.081 L 302.776 164.962 303.786 164.013 C 304.342 163.491,304.707 162.974,304.597 162.864 C 304.344 162.610,302.400 164.415,302.400 164.903 C 302.400 165.353,309.948 173.134,310.868 173.632 C 311.455 173.950,329.600 156.521,329.600 155.640 C 329.600 155.238,326.230 152.000,325.812 152.000 C 325.581 152.000,322.335 155.060,318.600 158.800 M53.500 153.627 C 52.675 154.063,52.000 154.508,52.000 154.618 C 52.000 154.796,55.159 153.319,55.567 152.951 C 56.027 152.534,54.825 152.928,53.500 153.627 M79.600 153.029 C 79.600 153.114,80.365 153.558,81.300 154.014 C 82.944 154.818,82.967 154.819,82.000 154.044 C 81.070 153.299,79.600 152.677,79.600 153.029 M44.879 157.100 C 41.067 160.864,39.542 162.924,38.216 166.100 C 37.313 168.263,37.834 167.949,38.880 165.700 C 40.436 162.354,43.207 158.967,47.552 155.100 C 48.726 154.055,49.493 153.200,49.257 153.200 C 49.021 153.200,47.051 154.955,44.879 157.100 M48.921 156.752 C 47.644 157.826,45.970 159.398,45.200 160.246 C 44.430 161.093,44.970 160.709,46.400 159.392 C 47.830 158.075,49.630 156.511,50.400 155.917 C 51.170 155.323,51.674 154.829,51.521 154.819 C 51.367 154.808,50.197 155.679,48.921 156.752 M83.200 154.898 C 83.310 155.012,84.518 155.997,85.884 157.087 C 89.037 159.603,91.684 162.816,93.641 166.504 C 95.484 169.975,95.719 169.813,93.952 166.289 C 92.792 163.975,88.629 158.404,88.055 158.397 C 87.915 158.395,87.168 157.794,86.396 157.062 C 85.297 156.020,82.365 154.035,83.200 154.898 M66.705 157.883 C 67.202 157.979,67.922 157.975,68.305 157.875 C 68.687 157.775,68.280 157.696,67.400 157.701 C 66.520 157.705,66.207 157.787,66.705 157.883 M223.454 162.029 C 222.188 163.024,222.028 165.052,223.109 166.386 L 223.817 167.261 253.957 167.255 L 284.097 167.248 285.049 166.354 C 286.302 165.177,286.289 163.453,285.018 162.182 L 284.036 161.200 254.272 161.200 C 224.766 161.200,224.499 161.207,223.454 162.029 M42.800 163.200 C 42.330 163.860,42.036 164.400,42.146 164.400 C 42.256 164.400,42.730 163.860,43.200 163.200 C 43.670 162.540,43.964 162.000,43.854 162.000 C 43.744 162.000,43.270 162.540,42.800 163.200 M284.469 162.662 C 285.379 163.486,285.412 165.102,284.538 166.069 C 283.908 166.765,282.441 166.800,254.167 166.800 L 224.458 166.800 223.629 165.746 C 222.593 164.429,222.587 163.813,223.600 162.800 C 224.739 161.661,283.216 161.529,284.469 162.662 M66.300 162.689 C 67.015 162.778,68.185 162.778,68.900 162.689 C 69.615 162.601,69.030 162.528,67.600 162.528 C 66.170 162.528,65.585 162.601,66.300 162.689 M62.178 163.391 C 55.826 165.398,50.821 171.392,50.092 177.865 L 49.892 179.631 53.621 179.516 L 57.350 179.400 57.836 177.488 C 58.922 173.223,62.469 170.444,66.978 170.326 C 69.496 170.260,69.574 170.236,67.700 170.105 C 65.644 169.961,65.600 169.932,65.600 168.703 C 65.600 166.705,64.680 162.796,64.220 162.840 C 63.989 162.861,63.070 163.110,62.178 163.391 M366.599 163.601 C 366.235 164.191,368.041 169.241,368.708 169.497 C 369.668 169.865,369.691 169.277,368.819 166.656 C 367.916 163.943,367.090 162.807,366.599 163.601 M70.656 164.484 C 70.521 164.988,70.427 165.760,70.446 166.200 C 70.465 166.640,70.645 166.298,70.846 165.440 C 71.236 163.778,71.070 162.940,70.656 164.484 M95.209 163.677 C 95.204 163.830,95.549 164.550,95.976 165.277 C 96.848 166.763,98.481 171.274,99.133 174.000 L 99.564 175.800 99.375 173.800 C 99.106 170.953,95.274 161.643,95.209 163.677 M40.780 166.439 C 40.320 167.340,40.031 168.165,40.138 168.271 C 40.244 168.378,40.647 167.775,41.033 166.932 C 41.419 166.090,41.805 165.265,41.891 165.100 C 41.977 164.935,41.950 164.800,41.832 164.800 C 41.713 164.800,41.240 165.537,40.780 166.439 M36.800 169.445 C 36.568 170.080,36.206 171.050,35.995 171.600 C 35.402 173.146,34.971 179.069,35.210 182.400 C 35.396 185.005,35.455 184.611,35.654 179.400 C 35.834 174.677,36.066 172.897,36.742 171.034 C 37.215 169.733,37.517 168.583,37.412 168.479 C 37.308 168.374,37.033 168.809,36.800 169.445 M38.469 172.634 C 37.991 174.405,37.625 176.652,37.655 177.627 C 37.706 179.297,37.727 179.260,38.014 177.000 C 38.182 175.680,38.618 173.642,38.984 172.472 C 39.349 171.301,39.578 170.134,39.493 169.879 C 39.408 169.623,38.947 170.863,38.469 172.634 M95.411 170.200 C 95.559 170.640,96.010 172.530,96.413 174.400 C 96.815 176.270,97.156 177.286,97.172 176.658 C 97.205 175.330,96.109 170.877,95.533 170.000 C 95.231 169.539,95.202 169.585,95.411 170.200 M370.414 176.100 C 370.451 177.419,371.931 181.777,372.395 181.932 C 372.974 182.125,372.757 179.918,371.919 177.100 C 371.506 175.711,370.382 174.964,370.414 176.100 M99.734 180.400 C 99.734 182.050,99.805 182.725,99.891 181.900 C 99.978 181.075,99.978 179.725,99.891 178.900 C 99.805 178.075,99.734 178.750,99.734 180.400 M37.789 184.000 C 37.962 186.338,39.110 190.624,39.468 190.265 C 39.585 190.148,39.396 189.185,39.047 188.126 C 38.698 187.067,38.236 185.210,38.020 184.000 L 37.627 181.800 37.789 184.000 M96.294 186.125 C 95.905 188.019,95.486 189.890,95.363 190.284 C 95.182 190.865,95.212 190.887,95.526 190.400 C 96.085 189.530,97.305 184.240,97.140 183.398 C 97.063 183.004,96.682 184.231,96.294 186.125 M35.631 186.000 C 35.624 186.330,35.800 187.320,36.021 188.200 C 36.242 189.080,36.504 190.147,36.602 190.571 C 36.756 191.233,37.628 192.484,37.584 191.980 C 37.525 191.294,35.640 185.525,35.631 186.000 M99.192 186.300 C 99.187 186.685,98.742 188.250,98.203 189.778 C 97.074 192.978,97.127 193.619,98.312 191.098 C 99.129 189.359,99.904 185.600,99.445 185.600 C 99.310 185.600,99.196 185.915,99.192 186.300 M373.372 189.500 C 373.514 190.325,373.733 191.676,373.858 192.503 C 374.100 194.111,374.634 194.726,375.251 194.109 C 375.492 193.868,375.481 193.081,375.222 191.964 C 374.997 190.994,374.716 189.705,374.599 189.100 C 374.242 187.265,373.052 187.653,373.372 189.500 M302.506 189.402 C 291.162 192.538,289.930 208.108,300.622 213.211 L 303.189 214.436 314.295 214.318 C 322.212 214.234,325.732 214.053,326.555 213.689 C 328.286 212.923,327.577 212.703,325.612 213.396 C 322.475 214.502,304.436 214.243,301.534 213.049 C 292.537 209.348,290.908 197.765,298.568 191.952 C 301.398 189.804,302.350 189.657,314.205 189.527 L 325.011 189.409 327.352 190.594 C 332.016 192.953,334.254 196.779,334.142 202.200 C 334.058 206.297,332.945 208.518,329.482 211.500 C 328.652 212.215,328.135 212.800,328.334 212.800 C 330.057 212.800,333.827 207.598,334.640 204.098 C 335.915 198.613,332.225 191.758,326.928 189.771 C 324.273 188.775,305.784 188.495,302.506 189.402 M319.800 190.396 C 319.282 190.616,319.704 190.667,321.000 190.540 C 322.189 190.423,323.770 190.583,324.899 190.933 C 325.944 191.256,326.712 191.381,326.606 191.210 C 326.055 190.318,321.318 189.751,319.800 190.396 M39.836 191.600 C 40.161 192.827,43.051 197.861,43.639 198.224 C 43.873 198.369,43.570 197.703,42.964 196.744 C 42.358 195.785,41.347 194.010,40.717 192.800 C 40.087 191.590,39.691 191.050,39.836 191.600 M94.185 192.705 C 93.122 194.802,92.797 195.600,93.006 195.600 C 93.275 195.600,95.279 191.545,95.099 191.365 C 95.013 191.280,94.602 191.883,94.185 192.705 M329.974 193.800 C 332.334 196.498,332.680 196.818,331.701 195.400 C 331.246 194.740,330.277 193.660,329.548 193.000 C 328.570 192.113,328.681 192.322,329.974 193.800 M37.792 193.492 C 38.124 194.647,40.639 198.823,41.470 199.600 C 42.229 200.308,42.334 200.509,39.477 195.800 C 38.409 194.040,37.651 193.001,37.792 193.492 M96.182 194.705 C 95.079 196.871,95.056 196.936,95.499 196.662 C 95.987 196.361,97.335 193.601,97.106 193.373 C 97.017 193.283,96.601 193.883,96.182 194.705 M90.753 198.262 C 88.417 201.289,84.067 204.891,80.906 206.416 C 79.487 207.100,78.415 207.748,78.523 207.857 C 79.214 208.548,87.077 203.185,89.458 200.400 C 91.151 198.419,92.931 196.000,92.696 196.000 C 92.587 196.000,91.712 197.018,90.753 198.262 M93.964 198.553 C 89.026 205.484,81.516 210.328,73.173 211.965 C 71.540 212.285,71.505 212.316,72.729 212.356 C 76.025 212.465,83.748 209.069,87.792 205.734 C 91.300 202.840,96.106 197.200,95.064 197.200 C 94.989 197.200,94.494 197.809,93.964 198.553 M311.029 198.229 C 310.881 198.815,310.838 199.372,310.932 199.466 C 311.027 199.560,311.224 199.158,311.371 198.571 C 311.519 197.985,311.562 197.428,311.468 197.334 C 311.373 197.240,311.176 197.642,311.029 198.229 M46.000 200.937 C 48.973 204.094,56.661 209.073,57.409 208.325 C 57.509 208.225,56.468 207.617,55.095 206.974 C 51.777 205.420,49.110 203.585,46.200 200.853 L 43.800 198.600 46.000 200.937 M333.324 201.800 C 333.326 203.120,333.401 203.612,333.490 202.893 C 333.579 202.174,333.577 201.094,333.486 200.493 C 333.395 199.892,333.322 200.480,333.324 201.800 M42.000 200.617 C 42.000 201.686,48.420 206.884,52.600 209.201 C 53.920 209.932,55.090 210.606,55.199 210.698 C 55.308 210.789,55.398 211.971,55.399 213.324 C 55.400 215.347,55.524 215.808,56.100 215.921 C 56.699 216.039,56.800 215.739,56.800 213.853 C 56.800 211.189,56.940 211.080,59.395 211.819 C 60.458 212.138,62.154 212.371,63.164 212.336 C 64.713 212.282,64.781 212.250,63.600 212.130 C 56.829 211.445,49.213 207.670,44.477 202.650 C 42.450 200.501,42.000 200.132,42.000 200.617 M375.423 203.257 C 375.723 206.401,375.835 206.800,376.424 206.800 C 377.263 206.800,376.545 200.782,375.670 200.490 C 375.250 200.350,375.200 200.909,375.423 203.257 M59.600 209.049 C 63.197 210.327,78.046 209.912,76.705 208.571 C 76.617 208.483,75.297 208.676,73.772 208.999 C 70.730 209.643,64.714 209.760,62.200 209.224 C 58.401 208.413,57.672 208.364,59.600 209.049 M314.286 210.003 C 315.214 210.970,316.035 211.680,316.112 211.580 C 316.188 211.481,315.429 210.690,314.425 209.822 L 312.600 208.244 314.286 210.003 M66.500 212.691 C 67.325 212.778,68.675 212.778,69.500 212.691 C 70.325 212.605,69.650 212.534,68.000 212.534 C 66.350 212.534,65.675 212.605,66.500 212.691 M320.900 213.087 C 321.505 213.178,322.495 213.178,323.100 213.087 C 323.705 212.995,323.210 212.920,322.000 212.920 C 320.790 212.920,320.295 212.995,320.900 213.087 M376.214 213.233 C 375.767 214.428,376.203 224.534,376.708 224.703 C 377.235 224.878,377.437 221.579,377.229 216.200 C 377.124 213.467,376.647 212.075,376.214 213.233 M55.682 225.029 C 55.762 227.129,55.968 228.191,56.318 228.307 C 56.718 228.439,56.808 227.773,56.718 225.371 C 56.638 223.271,56.432 222.209,56.082 222.093 C 55.682 221.961,55.592 222.627,55.682 225.029 M375.443 231.833 C 374.686 233.804,375.396 238.902,376.237 237.541 C 376.891 236.482,376.940 231.200,376.295 231.200 C 375.960 231.200,375.576 231.485,375.443 231.833 M56.219 234.769 C 56.006 235.114,56.531 238.879,57.051 240.733 C 57.307 241.645,58.207 240.965,58.080 239.956 C 57.519 235.490,57.342 234.647,56.937 234.512 C 56.682 234.427,56.359 234.543,56.219 234.769 M283.709 242.000 C 283.709 242.990,283.787 243.395,283.882 242.900 C 283.978 242.405,283.978 241.595,283.882 241.100 C 283.787 240.605,283.709 241.010,283.709 242.000 M374.211 244.500 C 373.518 246.615,373.169 249.729,373.579 250.139 C 374.189 250.749,374.784 249.801,374.798 248.200 C 374.804 247.540,374.920 246.325,375.057 245.500 C 375.294 244.065,374.616 243.264,374.211 244.500 M36.876 245.891 C 34.250 246.215,35.775 246.995,39.432 247.200 C 41.608 247.322,42.794 247.533,42.473 247.740 C 42.183 247.928,42.041 248.331,42.158 248.636 C 42.275 248.941,42.243 249.154,42.086 249.110 C 41.431 248.926,39.983 250.093,40.087 250.721 C 40.159 251.152,39.968 251.363,39.564 251.297 C 39.215 251.241,38.602 251.556,38.202 251.997 C 37.752 252.494,37.661 252.800,37.962 252.800 C 38.229 252.800,38.334 252.983,38.196 253.207 C 38.058 253.430,37.760 253.499,37.534 253.359 C 36.989 253.022,33.131 256.844,33.375 257.479 C 33.480 257.752,33.365 258.098,33.121 258.249 C 32.852 258.415,32.789 258.341,32.962 258.062 C 33.553 257.105,32.649 257.656,31.120 259.186 C 30.167 260.139,29.652 260.961,29.829 261.247 C 30.003 261.528,29.954 261.618,29.709 261.467 C 29.245 261.181,27.200 262.637,27.200 263.253 C 27.200 263.470,27.380 263.536,27.600 263.400 C 28.251 262.998,28.056 263.457,27.323 264.051 C 26.863 264.424,26.743 264.440,26.947 264.100 C 27.112 263.825,27.087 263.600,26.890 263.600 C 26.305 263.600,26.041 264.042,26.270 264.639 C 26.522 265.294,27.470 265.390,27.673 264.782 C 27.750 264.551,31.410 260.771,35.806 256.381 L 43.800 248.399 44.000 251.868 C 44.302 257.105,45.114 256.760,45.277 251.325 C 45.460 245.238,44.934 244.898,36.876 245.891 M44.921 246.995 C 44.965 247.212,44.685 247.450,44.300 247.524 C 43.862 247.608,43.600 247.412,43.600 247.000 C 43.600 246.304,44.782 246.299,44.921 246.995 M58.010 247.700 C 58.018 248.140,58.339 249.741,59.011 252.700 C 59.358 254.228,60.511 253.844,60.213 252.300 C 59.447 248.331,59.080 247.200,58.560 247.200 C 58.252 247.200,58.004 247.425,58.010 247.700 M23.100 251.511 L 17.600 251.623 17.600 262.611 L 17.600 273.600 23.300 273.655 C 34.152 273.760,38.750 273.705,39.382 273.462 C 39.937 273.249,40.003 272.219,39.908 265.209 C 39.767 254.763,39.073 254.444,38.800 264.699 L 38.600 272.200 28.700 272.307 L 18.800 272.414 18.800 262.650 C 18.800 251.071,17.745 252.319,27.275 252.628 C 34.097 252.850,34.463 252.824,34.330 252.131 C 34.175 251.320,33.741 251.296,23.100 251.511 M314.380 254.963 C 311.004 257.794,308.126 260.891,307.470 262.400 C 307.230 262.950,306.571 264.120,306.005 265.000 C 305.439 265.880,304.756 267.095,304.488 267.700 C 304.219 268.305,303.821 269.205,303.603 269.700 C 301.816 273.754,301.256 285.053,302.587 290.200 C 303.854 295.101,307.399 301.520,310.725 304.936 C 313.521 307.806,317.322 310.800,318.170 310.800 C 319.351 310.800,318.804 309.618,317.258 308.830 C 314.134 307.236,307.367 299.121,305.987 295.314 C 305.765 294.701,305.417 293.840,305.213 293.400 C 302.132 286.742,302.408 275.910,305.846 268.560 C 306.371 267.438,306.800 266.421,306.800 266.300 C 306.800 264.879,313.764 256.830,316.654 254.912 C 318.791 253.493,319.432 252.386,318.100 252.416 C 317.715 252.424,316.041 253.570,314.380 254.963 M36.906 254.667 C 35.423 256.096,34.400 256.921,34.400 256.687 C 34.400 256.350,37.346 253.613,37.521 253.788 C 37.601 253.868,37.324 254.263,36.906 254.667 M371.632 256.962 C 371.047 257.666,370.162 262.295,370.540 262.673 C 371.236 263.370,372.800 259.425,372.800 256.969 C 372.800 256.242,372.232 256.238,371.632 256.962 M322.246 259.566 C 317.815 262.487,312.622 269.834,311.751 274.412 C 311.606 275.175,311.325 276.117,311.127 276.505 C 309.712 279.273,311.179 288.780,313.876 294.323 C 315.970 298.628,323.014 305.573,324.117 304.422 C 324.498 304.025,324.349 303.737,323.414 303.059 C 318.281 299.342,314.637 294.291,312.984 288.602 C 311.171 282.368,313.232 269.983,316.536 267.251 C 316.901 266.949,317.200 266.493,317.200 266.237 C 317.200 265.695,320.728 262.239,322.900 260.654 C 325.225 258.957,324.641 257.987,322.246 259.566 M283.693 260.400 C 283.693 261.170,283.775 261.485,283.876 261.100 C 283.976 260.715,283.976 260.085,283.876 259.700 C 283.775 259.315,283.693 259.630,283.693 260.400 M60.826 260.500 C 60.877 262.216,62.273 265.797,62.944 265.929 C 63.688 266.076,63.793 265.296,63.214 263.919 C 63.001 263.413,62.634 262.235,62.398 261.300 C 61.939 259.482,60.779 258.891,60.826 260.500 M325.305 268.700 C 322.185 271.755,321.064 273.839,320.141 278.299 C 319.565 281.086,319.570 282.052,320.183 285.800 C 320.844 289.842,326.286 297.200,328.615 297.200 C 329.698 297.200,329.212 296.180,327.413 294.676 C 319.355 287.940,319.044 276.950,326.695 269.293 C 328.073 267.914,329.200 266.609,329.200 266.393 C 329.200 265.410,327.845 266.213,325.305 268.700 M64.800 272.672 C 64.800 273.079,65.160 274.396,65.600 275.600 C 66.040 276.804,66.400 277.836,66.400 277.894 C 66.400 277.952,66.670 278.000,67.000 278.000 C 67.792 278.000,67.736 277.462,66.648 274.623 C 65.742 272.258,64.800 271.263,64.800 272.672 M149.406 298.173 C 149.410 310.588,149.545 320.878,149.706 321.040 C 149.868 321.201,150.000 311.043,150.000 298.467 C 150.000 285.890,149.865 275.600,149.700 275.600 C 149.535 275.600,149.403 285.758,149.406 298.173 M332.151 277.775 C 327.982 279.589,329.323 286.000,333.871 286.000 C 338.052 286.000,339.716 280.128,336.134 278.014 C 334.533 277.069,333.865 277.029,332.151 277.775 M335.635 279.313 C 337.324 280.609,337.536 282.101,336.218 283.418 C 334.318 285.319,331.200 284.207,331.200 281.629 C 331.200 279.551,334.024 278.076,335.635 279.313 M69.443 283.931 C 68.953 284.723,71.337 289.600,72.214 289.600 C 73.052 289.600,72.953 289.080,71.609 286.418 C 70.382 283.987,69.812 283.333,69.443 283.931 M74.800 295.520 C 74.800 295.916,74.982 296.422,75.205 296.645 C 75.427 296.867,76.012 297.848,76.505 298.825 C 76.997 299.801,77.715 300.658,78.100 300.729 C 79.126 300.919,78.972 300.263,77.315 297.382 C 75.865 294.862,74.800 294.073,74.800 295.520 M352.000 303.192 C 352.000 303.408,351.370 304.569,350.600 305.773 C 349.157 308.029,348.854 308.982,349.666 308.711 C 350.388 308.471,353.658 303.617,353.390 303.184 C 353.079 302.681,352.000 302.687,352.000 303.192 M343.314 316.114 C 342.333 317.560,341.815 318.665,342.076 318.754 C 342.668 318.957,345.965 315.200,345.985 314.300 C 346.014 312.951,344.985 313.650,343.314 316.114 M282.840 324.240 C 282.558 325.021,282.415 325.748,282.523 325.857 C 282.632 325.965,282.936 325.399,283.200 324.600 C 283.825 322.706,283.509 322.390,282.840 324.240 M335.271 325.654 C 333.489 327.844,333.265 328.400,334.163 328.400 C 334.753 328.400,338.400 324.575,338.400 323.957 C 338.400 322.944,336.745 323.842,335.271 325.654 M151.387 326.775 C 151.721 327.421,152.176 328.061,152.398 328.199 C 152.620 328.336,152.423 327.807,151.961 327.024 C 150.948 325.307,150.535 325.128,151.387 326.775 M280.343 328.900 C 279.696 329.822,279.636 330.035,280.137 329.633 C 280.850 329.060,281.787 327.600,281.441 327.600 C 281.339 327.600,280.844 328.185,280.343 328.900 M277.400 331.859 L 275.800 333.287 277.700 331.976 C 278.745 331.255,279.600 330.605,279.600 330.532 C 279.600 330.122,278.814 330.596,277.400 331.859 M155.200 331.311 C 155.200 331.387,155.785 331.878,156.500 332.401 C 157.304 332.990,157.584 333.087,157.233 332.655 C 156.700 331.999,155.200 331.007,155.200 331.311 M328.200 333.285 C 327.105 333.916,324.821 336.486,324.809 337.100 C 324.793 337.973,325.458 337.650,327.557 335.763 C 330.023 333.545,330.423 332.004,328.200 333.285 M273.800 333.893 C 273.140 334.257,271.880 334.677,271.000 334.827 L 269.400 335.100 270.800 335.132 C 271.570 335.149,273.010 334.730,274.000 334.200 C 274.990 333.670,275.620 333.235,275.400 333.234 C 275.180 333.233,274.460 333.529,273.800 333.893 M159.884 334.204 C 160.359 334.536,161.614 334.892,162.673 334.994 L 164.600 335.180 162.919 334.814 C 161.994 334.613,160.881 334.257,160.445 334.024 C 159.265 333.393,158.896 333.511,159.884 334.204 M190.931 335.500 C 205.413 335.558,228.993 335.558,243.331 335.500 C 257.669 335.442,245.820 335.394,217.000 335.394 C 188.180 335.394,176.449 335.442,190.931 335.500 M317.400 342.853 C 315.216 344.626,314.597 345.427,315.147 345.767 C 315.820 346.183,320.566 342.193,320.167 341.547 C 319.823 340.990,319.513 341.137,317.400 342.853 M115.200 343.968 C 115.200 344.367,119.609 347.992,120.100 347.997 C 120.997 348.006,120.147 346.667,118.348 345.234 C 116.375 343.664,115.200 343.191,115.200 343.968 M148.489 349.023 C 148.000 349.365,147.611 349.950,147.625 350.323 C 147.644 350.815,147.750 350.754,148.012 350.100 C 148.211 349.605,148.425 349.156,148.487 349.103 C 148.549 349.050,176.860 348.914,211.400 348.801 L 274.200 348.595 211.789 348.498 C 155.847 348.410,149.286 348.465,148.489 349.023 M308.400 349.800 C 307.728 350.184,306.128 350.376,303.524 350.386 C 301.392 350.394,299.546 350.563,299.423 350.762 C 299.291 350.977,308.108 351.144,321.046 351.173 C 343.817 351.223,344.400 351.268,344.400 352.965 C 344.400 354.999,344.709 354.973,321.155 354.970 C 309.080 354.969,299.200 355.110,299.200 355.284 C 299.200 355.458,309.060 355.600,321.111 355.600 C 345.549 355.600,344.800 355.683,344.800 352.988 C 344.800 350.505,344.658 350.487,326.088 350.602 C 310.081 350.702,309.584 350.682,309.815 349.952 C 310.098 349.062,309.756 349.025,308.400 349.800 M125.200 351.315 C 125.200 351.767,129.939 355.200,130.563 355.200 C 131.457 355.200,130.431 353.897,128.420 352.479 C 125.926 350.720,125.200 350.458,125.200 351.315 M147.664 352.630 C 147.621 353.457,147.903 354.146,148.526 354.730 L 149.452 355.600 212.926 355.600 C 247.837 355.600,276.400 355.465,276.400 355.300 C 276.400 355.135,247.806 354.999,212.858 354.997 C 143.582 354.994,148.199 355.159,147.887 352.670 L 147.728 351.400 147.664 352.630 M136.200 358.000 C 135.806 358.638,136.243 359.037,138.781 360.358 C 142.901 362.502,143.517 361.288,139.462 359.020 C 136.667 357.457,136.557 357.422,136.200 358.000 M147.200 364.147 C 147.200 364.821,152.468 367.253,152.945 366.798 C 153.530 366.241,152.790 365.552,150.537 364.555 C 148.080 363.468,147.200 363.361,147.200 364.147 M282.600 364.400 C 281.958 365.440,283.550 366.024,284.361 365.047 C 284.717 364.618,284.675 364.438,284.177 364.247 C 283.275 363.900,282.885 363.938,282.600 364.400 M274.400 368.068 C 271.282 369.356,270.781 369.645,271.012 370.020 C 271.296 370.479,272.097 370.290,274.900 369.105 C 276.813 368.296,277.397 367.577,276.100 367.627 C 275.715 367.642,274.950 367.840,274.400 368.068 M159.265 369.040 C 159.418 369.839,164.129 371.815,164.837 371.377 C 165.621 370.893,165.106 370.441,162.900 369.680 C 161.635 369.243,160.267 368.751,159.859 368.585 C 159.273 368.346,159.149 368.441,159.265 369.040 M263.800 371.813 C 263.580 371.893,262.365 372.251,261.100 372.608 C 259.044 373.188,257.824 374.402,259.300 374.399 C 260.251 374.397,264.791 372.599,264.826 372.210 C 264.864 371.772,264.402 371.593,263.800 371.813 M285.741 372.900 C 285.072 373.615,283.918 375.100,283.176 376.200 C 281.252 379.053,279.558 380.800,278.716 380.800 C 278.316 380.800,277.677 380.959,277.295 381.153 C 275.854 381.884,272.680 382.400,269.620 382.400 C 262.223 382.400,260.400 384.873,260.400 394.906 L 260.400 401.443 261.569 403.287 C 262.250 404.361,263.489 405.570,264.537 406.184 L 266.335 407.238 286.367 407.380 C 316.884 407.597,316.800 407.632,316.800 394.634 L 316.800 388.090 315.500 386.162 C 313.640 383.403,311.639 382.525,306.600 382.253 C 301.231 381.963,299.163 381.560,296.469 380.275 C 295.957 380.031,294.740 378.643,293.766 377.191 C 289.817 371.305,288.095 370.384,285.741 372.900 M171.275 373.238 C 171.635 374.345,177.600 375.799,177.600 374.780 C 177.600 374.201,175.165 373.235,172.938 372.929 C 171.457 372.726,171.128 372.787,171.275 373.238 M248.878 375.567 C 246.840 376.224,246.169 376.876,247.287 377.112 C 248.497 377.367,252.602 376.128,252.729 375.468 C 252.895 374.614,251.740 374.643,248.878 375.567 M183.434 375.945 C 183.107 376.474,184.446 377.200,185.748 377.200 C 186.298 377.200,187.241 377.387,187.843 377.616 C 188.445 377.845,189.197 377.933,189.514 377.812 C 190.579 377.403,189.287 376.512,187.293 376.280 C 186.252 376.159,185.015 375.940,184.545 375.795 C 184.075 375.649,183.575 375.717,183.434 375.945 M236.092 377.578 C 234.186 377.888,233.090 378.636,234.033 378.982 C 235.301 379.447,239.785 378.624,239.924 377.900 C 240.072 377.130,239.262 377.062,236.092 377.578 M196.000 378.146 C 196.000 378.768,196.351 378.905,199.139 379.371 C 201.502 379.767,203.628 378.778,201.500 378.273 C 198.560 377.575,196.000 377.516,196.000 378.146 M208.488 379.265 C 208.895 380.486,215.000 380.800,215.000 379.600 C 215.000 379.124,214.310 378.976,211.661 378.883 C 209.133 378.795,208.362 378.887,208.488 379.265 M221.200 379.400 C 221.200 380.025,225.564 380.296,226.967 379.757 C 228.440 379.192,227.388 378.800,224.400 378.800 C 221.822 378.800,221.200 378.917,221.200 379.400 M294.919 392.769 C 296.215 393.262,296.556 394.303,295.800 395.456 L 295.182 396.400 282.491 396.387 C 269.020 396.374,268.400 396.290,268.400 394.479 C 268.400 392.535,269.290 392.400,282.063 392.400 C 288.600 392.400,294.385 392.566,294.919 392.769 M308.426 392.814 C 309.303 393.283,309.481 395.159,308.720 395.920 C 308.421 396.219,306.942 396.400,304.800 396.400 C 301.042 396.400,300.400 396.099,300.400 394.340 C 300.400 392.556,305.967 391.498,308.426 392.814 " stroke="none" fill="#b0e3fb" fill-rule="evenodd"></path></g></svg>