<?xml version="1.0" standalone="no"?>
<!DOCTYPE svg PUBLIC "-//W3C//DTD SVG 20010904//EN"
 "http://www.w3.org/TR/2001/REC-SVG-20010904/DTD/svg10.dtd">
<svg version="1.0" xmlns="http://www.w3.org/2000/svg"
 width="512.000000pt" height="512.000000pt" viewBox="0 0 512.000000 512.000000"
 preserveAspectRatio="xMidYMid meet">

<g transform="translate(0.000000,512.000000) scale(0.100000,-0.100000)"
fill="#5ebd4e" stroke="none">
<path d="M1315 4814 c-583 -167 -1071 -312 -1084 -322 -90 -67 -90 -177 0
-244 13 -10 175 -61 359 -114 184 -52 365 -104 403 -115 l67 -20 0 -382 c0
-473 12 -587 81 -804 101 -314 316 -607 570 -774 44 -29 79 -56 79 -61 0 -7
-67 -147 -75 -156 -2 -2 -49 -9 -106 -17 -188 -24 -332 -66 -494 -144 -525
-251 -880 -756 -944 -1343 -22 -197 -7 -259 69 -298 39 -20 54 -20 2170 -20
2116 0 2131 0 2170 20 76 39 91 101 69 298 -64 587 -419 1092 -944 1343 -162
78 -306 120 -494 144 -57 8 -104 15 -106 17 -8 9 -75 149 -75 156 0 5 35 32
79 61 254 167 469 460 570 774 69 217 81 331 81 804 l0 382 68 20 c37 11 164
47 282 81 118 34 223 63 233 66 16 5 17 -34 17 -733 l0 -738 -65 -34 c-109
-56 -197 -174 -224 -299 -6 -29 -11 -136 -11 -238 0 -215 9 -248 80 -284 37
-19 58 -20 370 -20 312 0 333 1 370 20 71 36 80 69 80 284 0 102 -5 209 -11
238 -27 125 -115 243 -224 299 l-65 34 -2 805 c-1 443 -1 826 1 852 3 67 -28
123 -82 148 -59 28 -2141 620 -2174 619 -16 -1 -505 -138 -1088 -305z m1872
-221 c420 -120 763 -220 763 -223 0 -3 -347 -104 -770 -225 l-770 -219 -770
219 c-423 121 -770 222 -770 225 0 7 1509 438 1535 439 11 1 363 -97 782 -216z
m-1284 -834 c268 -76 496 -139 507 -139 11 0 239 63 507 139 268 77 500 143
516 146 l27 7 0 -214 c0 -266 1 -265 -120 -325 -156 -78 -404 -150 -635 -184
-117 -18 -472 -18 -590 -1 -227 34 -466 103 -632 183 -122 58 -123 62 -123
330 l0 211 28 -7 c15 -3 247 -69 515 -146z m-452 -703 c82 -36 271 -95 389
-121 214 -48 321 -59 570 -59 175 0 264 5 350 18 222 34 431 89 598 158 40 17
75 29 77 27 2 -2 -2 -30 -10 -61 -37 -159 -111 -328 -201 -455 -106 -150 -298
-307 -454 -370 -132 -53 -205 -67 -360 -67 -155 0 -228 14 -360 67 -156 63
-348 220 -454 370 -86 122 -172 315 -201 452 -3 17 -8 38 -11 48 -7 23 3 22
67 -7z m3129 -656 c60 -31 80 -78 80 -190 l0 -90 -150 0 -150 0 0 90 c0 110
20 159 78 189 48 26 93 26 142 1z m-2408 -556 c108 -25 355 -25 476 0 51 10
94 17 96 15 9 -10 86 -170 86 -179 0 -13 -411 -630 -420 -630 -9 0 -420 617
-420 630 0 21 85 180 97 180 6 0 45 -7 85 -16z m-177 -721 l265 -398 0 -212 0
-213 -896 0 -896 0 7 53 c66 492 441 942 914 1096 88 29 215 58 286 64 22 2
43 4 47 5 5 1 127 -177 273 -395z m1270 370 c553 -106 1005 -583 1080 -1140
l7 -53 -896 0 -896 0 0 213 0 212 264 396 265 397 48 -5 c26 -2 84 -11 128
-20z"/>
<path d="M3238 899 c-43 -22 -78 -81 -78 -129 0 -50 35 -107 80 -130 35 -18
59 -20 220 -20 161 0 185 2 220 20 45 23 80 80 80 130 0 50 -35 107 -80 130
-35 18 -58 20 -222 20 -162 -1 -187 -3 -220 -21z"/>
</g>
</svg>
