<?xml version="1.0" standalone="no"?>
<!DOCTYPE svg PUBLIC "-//W3C//DTD SVG 20010904//EN"
 "http://www.w3.org/TR/2001/REC-SVG-20010904/DTD/svg10.dtd">
<svg version="1.0" xmlns="http://www.w3.org/2000/svg"
 width="512.000000pt" height="512.000000pt" viewBox="0 0 512.000000 512.000000"
 preserveAspectRatio="xMidYMid meet">

<g transform="translate(0.000000,512.000000) scale(0.100000,-0.100000)"
fill="#387ee7" stroke="none">
<path d="M1280 4531 l-1275 -588 -3 -427 -2 -426 255 0 255 0 0 -755 0 -755
-135 0 -135 0 0 -285 0 -285 -120 0 -120 0 0 -500 0 -500 2560 0 2560 0 0 500
0 500 -65 0 -65 0 0 285 0 285 -195 0 -195 0 0 755 0 755 260 0 260 0 -2 426
-3 427 -1275 588 c-701 323 -1277 588 -1280 588 -3 0 -579 -265 -1280 -588z
m2407 -261 l1128 -520 3 -180 2 -180 -2260 0 -2260 0 2 180 3 180 1125 520
c619 285 1126 519 1127 519 1 1 510 -233 1130 -519z m-2507 -1935 l0 -755
-185 0 -185 0 0 755 0 755 185 0 185 0 0 -755z m890 0 l0 -755 -295 0 -295 0
0 755 0 755 295 0 295 0 0 -755z m670 0 l0 -755 -185 0 -185 0 0 755 0 755
185 0 185 0 0 -755z m890 0 l0 -755 -295 0 -295 0 0 755 0 755 295 0 295 0 0
-755z m670 0 l0 -755 -185 0 -185 0 0 755 0 755 185 0 185 0 0 -755z m390
-1190 l0 -135 -2075 0 -2075 0 0 135 0 135 2075 0 2075 0 0 -135z m130 -635
l0 -200 -2260 0 -2260 0 0 200 0 200 2260 0 2260 0 0 -200z"/>
<path d="M2488 4480 c-32 -4 -89 -23 -130 -42 -163 -78 -258 -230 -258 -413 0
-205 134 -382 330 -437 293 -82 580 134 580 437 0 129 -43 235 -131 324 -104
103 -240 149 -391 131z m147 -319 c74 -42 100 -152 53 -221 -87 -127 -288 -70
-288 82 0 78 34 128 107 154 43 15 83 10 128 -15z"/>
</g>
</svg>
