<?xml version="1.0" standalone="no"?>
<svg xmlns:xlink="http://www.w3.org/1999/xlink" id="wave" style="transform:rotate(180deg); transition: 0.3s" viewBox="0 0 1440 110" version="1.1" xmlns="http://www.w3.org/2000/svg"><defs><linearGradient id="sw-gradient-0" x1="0" x2="0" y1="1" y2="0"><stop stop-color="rgba(142, 211, 133, 1)" offset="0%"/><stop stop-color="rgba(142, 211, 133, 1)" offset="100%"/></linearGradient></defs><path style="transform:translate(0, 0px); opacity:1" fill="url(#sw-gradient-0)" d="M0,77L60,78.8C120,81,240,84,360,84.3C480,84,600,81,720,82.5C840,84,960,92,1080,89.8C1200,88,1320,77,1440,73.3C1560,70,1680,73,1800,67.8C1920,62,2040,48,2160,51.3C2280,55,2400,77,2520,78.8C2640,81,2760,62,2880,60.5C3000,59,3120,73,3240,69.7C3360,66,3480,44,3600,40.3C3720,37,3840,51,3960,47.7C4080,44,4200,22,4320,16.5C4440,11,4560,22,4680,22C4800,22,4920,11,5040,9.2C5160,7,5280,15,5400,16.5C5520,18,5640,15,5760,27.5C5880,40,6000,70,6120,77C6240,84,6360,70,6480,66C6600,62,6720,70,6840,67.8C6960,66,7080,55,7200,58.7C7320,62,7440,81,7560,73.3C7680,66,7800,33,7920,20.2C8040,7,8160,15,8280,27.5C8400,40,8520,59,8580,67.8L8640,77L8640,110L8580,110C8520,110,8400,110,8280,110C8160,110,8040,110,7920,110C7800,110,7680,110,7560,110C7440,110,7320,110,7200,110C7080,110,6960,110,6840,110C6720,110,6600,110,6480,110C6360,110,6240,110,6120,110C6000,110,5880,110,5760,110C5640,110,5520,110,5400,110C5280,110,5160,110,5040,110C4920,110,4800,110,4680,110C4560,110,4440,110,4320,110C4200,110,4080,110,3960,110C3840,110,3720,110,3600,110C3480,110,3360,110,3240,110C3120,110,3000,110,2880,110C2760,110,2640,110,2520,110C2400,110,2280,110,2160,110C2040,110,1920,110,1800,110C1680,110,1560,110,1440,110C1320,110,1200,110,1080,110C960,110,840,110,720,110C600,110,480,110,360,110C240,110,120,110,60,110L0,110Z"/></svg>